<svg width="56" height="57" viewBox="0 0 56 57" fill="none" xmlns="http://www.w3.org/2000/svg">
<g clip-path="url(#clip0_2433_108584)">
<path d="M28 51.5332V55.0332" stroke="white" stroke-width="2" stroke-linecap="round" stroke-linejoin="round"/>
<path d="M35 40.5317V46.8667C35 50.1941 32.2 51.5334 28 51.5334C23.8 51.5334 21 50.1941 21 46.8667V40.5317" stroke="white" stroke-width="2" stroke-linecap="round" stroke-linejoin="round"/>
<path d="M28.0007 40.3264V30.5334L23.334 25.8667" stroke="white" stroke-width="2" stroke-linecap="round" stroke-linejoin="round"/>
<path d="M33.8343 41.0334C36.6289 39.9255 39.0193 37.992 40.6869 35.4906C42.3544 32.9893 43.2198 30.0391 43.1676 27.0334C43.0963 23.0332 41.4755 19.2168 38.6465 16.3878C35.8175 13.5588 32.0011 11.938 28.0009 11.8667C24.0008 11.938 20.1843 13.5588 17.3553 16.3878C14.5264 19.2168 12.9056 23.0332 12.8343 27.0334C12.7821 30.0391 13.6475 32.9893 15.315 35.4906C16.9825 37.992 19.373 39.9255 22.1676 41.0334H33.8343Z" stroke="white" stroke-width="2" stroke-linecap="round" stroke-linejoin="round"/>
<path d="M21 45.7002H35" stroke="white" stroke-width="2" stroke-linecap="round" stroke-linejoin="round"/>
<path d="M28 1.3667V6.03337" stroke="white" stroke-width="2" stroke-linecap="round" stroke-linejoin="round"/>
<path d="M2.33398 24.7002H7.67965" stroke="white" stroke-width="2" stroke-linecap="round" stroke-linejoin="round"/>
<path d="M8.16602 7.2002L12.8327 11.8669" stroke="#49AC32" stroke-width="2" stroke-linecap="round" stroke-linejoin="round"/>
<path d="M53.666 24.7002H48.3203" stroke="white" stroke-width="2" stroke-linecap="round" stroke-linejoin="round"/>
<path d="M47.8327 7.2002L43.166 11.8669" stroke="#49AC32" stroke-width="2" stroke-linecap="round" stroke-linejoin="round"/>
<path d="M28 30.5334L32.6667 25.8667" stroke="white" stroke-width="2" stroke-linecap="round" stroke-linejoin="round"/>
</g>
<defs>
<clipPath id="clip0_2433_108584">
<rect width="56" height="56" fill="white" transform="translate(0 0.200195)"/>
</clipPath>
</defs>
</svg>
