<svg width="56" height="57" viewBox="0 0 56 57" fill="none" xmlns="http://www.w3.org/2000/svg">
<g clip-path="url(#clip0_2433_108612)">
<path d="M38.0003 55.0663L26.0676 42.6997C25.0209 41.6634 24.3291 40.3223 24.0914 38.8686C23.8537 37.415 24.0824 35.9234 24.7446 34.6077V34.6077C25.2503 33.6123 25.9841 32.7505 26.886 32.0925C27.788 31.4345 28.8327 30.9989 29.9349 30.8212C31.0372 30.6436 32.1658 30.7289 33.2288 31.0702C34.2918 31.4116 35.2592 31.9992 36.052 32.7853L38.0003 34.7197L39.9486 32.7853C40.7414 31.9992 41.7088 31.4116 42.7718 31.0702C43.8348 30.7289 44.9635 30.6436 46.0657 30.8212C47.168 30.9989 48.2126 31.4345 49.1146 32.0925C50.0166 32.7505 50.7503 33.6123 51.256 34.6077V34.6077C51.9182 35.9234 52.1469 37.415 51.9092 38.8686C51.6716 40.3223 50.9798 41.6634 49.933 42.6997L38.0003 55.0663Z" stroke="#49AC32" stroke-width="2" stroke-linecap="round" stroke-linejoin="round"/>
<path d="M26.3327 49.2334V51.0114C26.3308 51.5458 26.2238 52.0746 26.0176 52.5676C25.8114 53.0606 25.5101 53.5082 25.1309 53.8848C24.7517 54.2613 24.3021 54.5595 23.8077 54.7623C23.3133 54.9651 22.7837 55.0686 22.2493 55.0667C21.715 55.0686 21.1854 54.9651 20.691 54.7623C20.1966 54.5595 19.747 54.2613 19.3678 53.8848C18.9886 53.5082 18.6873 53.0606 18.4811 52.5676C18.2749 52.0746 18.1679 51.5458 18.166 51.0114V50.4001" stroke="white" stroke-width="2" stroke-linecap="round" stroke-linejoin="round"/>
<path d="M49.6667 25.8999C49.4956 24.5147 48.7898 23.2512 47.6999 22.3793C46.6099 21.5073 45.2223 21.096 43.8333 21.2332C42.4443 21.096 41.0567 21.5073 39.9668 22.3793C38.8769 23.2512 38.1711 24.5147 38 25.8999C37.8289 24.5147 37.1231 23.2512 36.0332 22.3793C34.9433 21.5073 33.5557 21.096 32.1667 21.2332C30.7777 21.096 29.3901 21.5073 28.3001 22.3793C27.2102 23.2512 26.5044 24.5147 26.3333 25.8999C26.1623 24.5147 25.4564 23.2512 24.3665 22.3793C23.2766 21.5073 21.889 21.096 20.5 21.2332C19.111 21.096 17.7234 21.5073 16.6335 22.3793C15.5436 23.2512 14.8377 24.5147 14.6667 25.8999C14.4956 24.5147 13.7898 23.2512 12.6999 22.3793C11.6099 21.5073 10.2223 21.096 8.83333 21.2332C7.44433 21.096 6.05672 21.5073 4.96681 22.3793C3.8769 23.2512 3.17106 24.5147 3 25.8999V24.7332C3 18.5449 5.45833 12.6099 9.83417 8.23408C14.21 3.85823 20.1449 1.3999 26.3333 1.3999C32.5217 1.3999 38.4566 3.85823 42.8325 8.23408C47.2083 12.6099 49.6667 18.5449 49.6667 24.7332V25.8999Z" stroke="white" stroke-width="2" stroke-linecap="round" stroke-linejoin="round"/>
<path d="M26.334 1.3999V27.0666" stroke="white" stroke-width="2" stroke-linecap="round" stroke-linejoin="round"/>
<path d="M14.6661 25.8999C14.3746 21.1621 15.2924 16.4279 17.3332 12.1421C19.374 7.85644 22.4709 4.15992 26.3328 1.3999" stroke="white" stroke-width="2" stroke-linecap="round" stroke-linejoin="round"/>
<path d="M38.0007 25.8999C38.2922 21.1621 37.3744 16.4279 35.3336 12.1421C33.2928 7.85644 30.1959 4.15992 26.334 1.3999" stroke="white" stroke-width="2" stroke-linecap="round" stroke-linejoin="round"/>
</g>
<defs>
<clipPath id="clip0_2433_108612">
<rect width="56" height="56" fill="white" transform="translate(0 0.399902)"/>
</clipPath>
</defs>
</svg>
