<svg width="56" height="56" viewBox="0 0 56 56" fill="none" xmlns="http://www.w3.org/2000/svg">
<path d="M28 36.167C29.933 36.167 31.5 34.6 31.5 32.667C31.5 30.734 29.933 29.167 28 29.167C26.067 29.167 24.5 30.734 24.5 32.667C24.5 34.6 26.067 36.167 28 36.167Z" stroke="white" stroke-width="2" stroke-linecap="round" stroke-linejoin="round"/>
<path d="M30.4746 30.1912L42.0269 18.6436" stroke="white" stroke-width="2" stroke-linecap="round" stroke-linejoin="round"/>
<path d="M5.83398 33.8335H10.5007" stroke="white" stroke-width="2" stroke-linecap="round" stroke-linejoin="round"/>
<path d="M50.1667 33.8335H45.5" stroke="white" stroke-width="2" stroke-linecap="round" stroke-linejoin="round"/>
<path d="M48.4776 24.1851L44.168 25.9701" stroke="#49AC32" stroke-width="2" stroke-linecap="round" stroke-linejoin="round"/>
<path d="M36.4823 12.187L34.6973 16.499" stroke="#49AC32" stroke-width="2" stroke-linecap="round" stroke-linejoin="round"/>
<path d="M28 10.5V15.1667" stroke="white" stroke-width="2" stroke-linecap="round" stroke-linejoin="round"/>
<path d="M19.5195 12.187L21.3045 16.499" stroke="#49AC32" stroke-width="2" stroke-linecap="round" stroke-linejoin="round"/>
<path d="M12.3281 16.9917L15.6228 20.2934" stroke="white" stroke-width="2" stroke-linecap="round" stroke-linejoin="round"/>
<path d="M7.52344 24.1851L11.8308 25.9701" stroke="#49AC32" stroke-width="2" stroke-linecap="round" stroke-linejoin="round"/>
<path d="M28.0013 5.8335C20.8847 5.8335 14.0595 8.66057 9.02727 13.6928C3.99504 18.725 1.16797 25.5502 1.16797 32.6668V40.8335C1.16797 41.4523 1.4138 42.0458 1.85139 42.4834C2.28897 42.921 2.88246 43.1668 3.5013 43.1668H52.5013C53.1201 43.1668 53.7136 42.921 54.1512 42.4834C54.5888 42.0458 54.8346 41.4523 54.8346 40.8335V32.6668C54.8346 25.5502 52.0076 18.725 46.9753 13.6928C41.9431 8.66057 35.1179 5.8335 28.0013 5.8335V5.8335Z" stroke="white" stroke-width="2" stroke-linecap="round" stroke-linejoin="round"/>
</svg>
