<svg width="150" height="150" viewBox="0 0 150 150" fill="none" xmlns="http://www.w3.org/2000/svg">
<path fill-rule="evenodd" clip-rule="evenodd" d="M68.9988 48.3898C71.7913 49.8235 74.8624 50.6322 77.9988 50.7598C79.9917 50.8089 81.9544 50.266 83.6388 49.1998C86.0135 47.5326 87.682 45.0405 88.3188 42.2098H117.539V17.0098H78.5388V42.2098H85.1988C84.659 44.0169 83.5287 45.5908 81.9888 46.6798C79.3488 48.3598 75.2688 48.0298 70.1988 45.6598C57.9588 39.9598 49.1988 40.2898 42.2988 46.6498L44.3388 48.8398C50.2188 43.3498 57.7788 43.1998 68.9988 48.3898ZM81.5688 39.2098V20.0098H114.569V39.2098H88.9488C89.1755 37.6303 89.2758 36.0352 89.2488 34.4398H86.2488C86.2701 36.0361 86.1598 37.6315 85.9188 39.2098H81.5688ZM107.88 25.5879H96.5098V28.5879H107.88V25.5879ZM147.33 81.2978V98.9978H96.18V119.998H106.74C109.035 119.99 111.241 120.885 112.88 122.491C114.519 124.097 115.461 126.283 115.5 128.578V135.388H40.83V128.458C40.83 127.309 41.0568 126.171 41.4974 125.11C41.938 124.049 42.5837 123.085 43.3976 122.274C44.2114 121.463 45.1773 120.821 46.24 120.384C47.3026 119.947 48.441 119.724 49.59 119.728H59.7V98.7278L0 79.4078L5.49 62.9978L17.16 66.6578C15.4793 65.1545 14.2019 63.2542 13.4445 61.1302C12.6871 59.0063 12.4738 56.7265 12.824 54.4989C13.1742 52.2714 14.0769 50.167 15.4495 48.378C16.8221 46.589 18.621 45.1723 20.6819 44.2572C22.7428 43.3422 25.0001 42.9579 27.2477 43.1396C29.4953 43.3212 31.6616 44.063 33.5488 45.2971C35.4361 46.5313 36.9841 48.2185 38.0516 50.2047C39.1191 52.1909 39.6721 54.4129 39.66 56.6678C39.6406 58.0037 39.4181 59.3289 39 60.5978C40.1821 58.7958 41.7893 57.3123 43.68 56.2778C45.1902 55.4713 46.845 54.9713 48.5492 54.8066C50.2533 54.6418 51.9732 54.8156 53.61 55.3178L68.61 60.3578C70.3108 59.1433 72.3403 58.4738 74.43 58.4378H118.65C121.621 58.4206 124.493 59.5063 126.71 61.4848C128.927 63.4633 130.331 66.1938 130.65 69.1478C131.942 69.3727 133.153 69.9283 134.167 70.7607C135.18 71.593 135.96 72.6737 136.431 73.8973C136.903 75.1209 137.049 76.4457 136.856 77.7427C136.663 79.0397 136.137 80.2645 135.33 81.2978H147.33ZM130.8 95.9978H144.33V84.2978H130.8V95.9978ZM133.165 79.3577C133.741 78.582 134.058 77.6442 134.07 76.6778C134.074 75.6932 133.765 74.7328 133.188 73.9349C132.611 73.137 131.796 72.5427 130.86 72.2378V80.9978C131.782 80.7074 132.588 80.1334 133.165 79.3577ZM122.239 62.0706C121.127 61.629 119.937 61.4139 118.74 61.4378H74.4C72.4666 61.6648 70.6398 62.4451 69.139 63.6851C67.6383 64.925 66.5275 66.5719 65.94 68.4278H73.35C75.3709 68.4278 77.3091 69.2307 78.7382 70.6597C80.1672 72.0887 80.97 74.0269 80.97 76.0478C80.97 78.0688 80.1672 80.007 78.7382 81.436C77.3091 82.865 75.3709 83.6678 73.35 83.6678H65.49V95.9978L127.92 95.6678V70.4378C127.92 69.2406 127.682 68.0554 127.218 66.9516C126.755 65.8478 126.076 64.8475 125.221 64.0094C124.366 63.1713 123.352 62.5121 122.239 62.0706ZM45.0064 58.9552C42.6727 60.2148 40.9335 62.3482 40.17 64.8878L38.73 70.1078C38.4739 70.9672 38.5624 71.8925 38.9768 72.6877C39.3912 73.4829 40.0989 74.0855 40.95 74.3678L50.19 77.3678L60.75 80.7878H73.5C74.7253 80.7878 75.9004 80.3011 76.7668 79.4347C77.6333 78.5683 78.12 77.3931 78.12 76.1678C78.12 74.9425 77.6333 73.7674 76.7668 72.901C75.9004 72.0346 74.7253 71.5478 73.5 71.5478L59.91 71.3078L46.38 66.1478L47.46 63.3578L60.72 68.3978H63C63.582 66.2966 64.6046 64.3433 66 62.6678L52.62 58.1678C50.0779 57.4124 47.3401 57.6955 45.0064 58.9552ZM17.3996 50.8344C16.2458 52.5611 15.63 54.5911 15.63 56.6678C15.63 58.0467 15.9016 59.4121 16.4293 60.686C16.9569 61.9599 17.7304 63.1174 18.7054 64.0925C19.6804 65.0675 20.8379 65.8409 22.1118 66.3686C23.3857 66.8963 24.7511 67.1678 26.13 67.1678C28.2067 67.1678 30.2368 66.552 31.9635 65.3983C33.6902 64.2445 35.036 62.6046 35.8307 60.686C36.6255 58.7674 36.8334 56.6562 36.4282 54.6194C36.0231 52.5826 35.0231 50.7117 33.5546 49.2432C32.0862 47.7748 30.2153 46.7747 28.1784 46.3696C26.1416 45.9644 24.0304 46.1724 22.1118 46.9671C20.1932 47.7618 18.5533 49.1076 17.3996 50.8344ZM35.73 69.1778L37.2 64.3478C36.1002 65.9262 34.6736 67.2495 33.0172 68.2278C31.3608 69.2062 29.5132 69.8167 27.6 70.0178L35.73 72.6578C35.4157 71.5191 35.4157 70.3166 35.73 69.1778ZM39.93 77.1578L7.41 66.6878L3.9 77.5178L60.9 95.9978H62.55V83.6078H60L47.73 79.6478L39.93 77.1578ZM112.41 132.508V128.578H112.5C112.453 127.055 111.805 125.613 110.697 124.568C109.589 123.522 108.113 122.957 106.59 122.998H49.59C48.093 122.997 46.6546 123.579 45.5794 124.621C44.5042 125.662 43.8768 127.082 43.83 128.578V132.508H112.41ZM62.7 119.998H93.18V98.9978H62.7V119.998Z" fill="#0F1F3F"/>
<path fill-rule="evenodd" clip-rule="evenodd" d="M53.9977 15V18.48L47.9977 26.07H54.6577V29.07H43.4977V27L43.8577 26.43C44.4198 25.8174 44.9505 25.1765 45.4477 24.51L50.4277 18H42.5977V15H53.9977ZM90.3891 27.2121C90.3891 28.6204 89.2474 29.7621 87.8391 29.7621C86.4307 29.7621 85.2891 28.6204 85.2891 27.2121C85.2891 25.8038 86.4307 24.6621 87.8391 24.6621C89.2474 24.6621 90.3891 25.8038 90.3891 27.2121ZM27.6291 33.4812L28.0191 33.0012C28.3807 32.6305 28.7212 32.2399 29.0391 31.8312L31.7991 28.2012H27.5391V25.2012H35.5791V28.2012L32.2191 32.5512H35.6091V35.5512H27.6291V33.4812ZM42.8988 45.7196C41.957 44.9179 40.8519 44.3309 39.6604 43.9994C38.4688 43.6678 37.2194 43.5996 35.9988 43.7996C35.1669 43.7594 34.3417 43.9658 33.6265 44.3927C32.9114 44.8197 32.3382 45.4482 31.9788 46.1996C31.8429 46.6157 31.8331 47.0627 31.9505 47.4844C32.068 47.9061 32.3074 48.2836 32.6388 48.5696C33.7351 49.3892 34.6369 50.4406 35.2799 51.6489C35.923 52.8572 36.2914 54.1925 36.3588 55.5596C36.3182 56.1179 36.4051 56.6782 36.613 57.1979C36.8209 57.7177 37.1444 58.1833 37.5588 58.5596C38.0111 58.862 38.5449 59.019 39.0888 59.0096C39.4752 59.0009 39.8586 58.9403 40.2288 58.8296C41.0491 58.6619 41.8252 58.3243 42.5072 57.8386C43.1893 57.353 43.7621 56.7299 44.1888 56.0096C45.2522 53.6503 45.4228 50.9852 44.6688 48.5096L42.8988 45.7196ZM41.6988 54.3896C41.479 54.7565 41.1832 55.0721 40.8313 55.3153C40.4795 55.5584 40.0797 55.7236 39.6588 55.7996C39.6441 55.5999 39.6441 55.3993 39.6588 55.1996C39.4534 52.02 38.0103 49.0476 35.6388 46.9196C35.9234 46.8421 36.2147 46.7919 36.5088 46.7696C37.9799 46.5322 39.4876 46.8189 40.7688 47.5796L42.1488 49.4696C42.571 51.1124 42.412 52.8507 41.6988 54.3896Z" fill="#49AC32"/>
</svg>
