<svg width="70" height="70" viewBox="0 0 70 70" fill="none" xmlns="http://www.w3.org/2000/svg">
<path fill-rule="evenodd" clip-rule="evenodd" d="M32.1995 22.582C33.5026 23.251 34.9358 23.6284 36.3995 23.688C37.3295 23.7109 38.2454 23.4576 39.0315 22.96C40.1397 22.182 40.9183 21.019 41.2155 19.698H54.8515V7.93799H36.6515V19.698H39.7595C39.5075 20.5413 38.9801 21.2758 38.2615 21.784C37.0295 22.568 35.1255 22.414 32.7595 21.308C27.0475 18.648 22.9595 18.802 19.7395 21.77L20.6915 22.792C23.4355 20.23 26.9635 20.16 32.1995 22.582ZM38.0655 18.298V9.33799H53.4655V18.298H41.5095C41.6152 17.5609 41.6621 16.8165 41.6495 16.072H40.2495C40.2594 16.817 40.2079 17.5615 40.0955 18.298H38.0655ZM50.3439 11.9411H45.0379V13.3411H50.3439V11.9411ZM68.754 37.9391V46.1991H44.884V55.9991H49.812C50.8829 55.9952 51.9122 56.4132 52.6773 57.1626C53.4424 57.9119 53.8816 58.9323 53.9 60.0031V63.1811H19.054V59.9471C19.054 59.4109 19.1598 58.88 19.3654 58.3848C19.5711 57.8896 19.8724 57.4399 20.2522 57.0614C20.632 56.6829 21.0828 56.3831 21.5786 56.1792C22.0745 55.9753 22.6058 55.8712 23.142 55.8731H27.86V46.0731L0 37.0571L2.562 29.3991L8.008 31.1071C7.22368 30.4055 6.62757 29.5187 6.27411 28.5275C5.92066 27.5364 5.8211 26.4725 5.98454 25.4329C6.14798 24.3934 6.5692 23.4114 7.20976 22.5765C7.85031 21.7416 8.68979 21.0805 9.65155 20.6535C10.6133 20.2264 11.6667 20.0471 12.7156 20.1319C13.7645 20.2167 14.7754 20.5628 15.6561 21.1388C16.5368 21.7147 17.2592 22.5021 17.7574 23.429C18.2556 24.3559 18.5136 25.3928 18.508 26.4451C18.499 27.0685 18.3951 27.6869 18.2 28.2791C18.7517 27.4382 19.5017 26.7458 20.384 26.2631C21.0888 25.8867 21.861 25.6534 22.6563 25.5765C23.4515 25.4996 24.2542 25.5807 25.018 25.8151L32.018 28.1671C32.8117 27.6003 33.7588 27.2878 34.734 27.2711H55.37C56.7566 27.2631 58.0968 27.7697 59.1313 28.693C60.1658 29.6163 60.821 30.8905 60.97 32.2691C61.5729 32.374 62.1382 32.6333 62.6111 33.0217C63.0839 33.4102 63.448 33.9145 63.668 34.4855C63.8879 35.0565 63.9562 35.6748 63.8661 36.28C63.776 36.8853 63.5307 37.4569 63.154 37.9391H68.754ZM61.04 44.7991H67.354V39.3391H61.04V44.7991ZM62.1435 37.0337C62.4125 36.6717 62.5603 36.234 62.566 35.7831C62.5678 35.3236 62.4238 34.8754 62.1546 34.503C61.8854 34.1307 61.5049 33.8534 61.068 33.7111V37.7991C61.4981 37.6635 61.8745 37.3957 62.1435 37.0337ZM57.0451 28.9664C56.5258 28.7603 55.9706 28.6599 55.412 28.6711H34.72C33.8177 28.777 32.9652 29.1411 32.2649 29.7198C31.5645 30.2984 31.0462 31.067 30.772 31.9331H34.23C35.1731 31.9331 36.0776 32.3077 36.7445 32.9746C37.4114 33.6415 37.786 34.546 37.786 35.4891C37.786 36.4322 37.4114 37.3367 36.7445 38.0036C36.0776 38.6704 35.1731 39.0451 34.23 39.0451H30.562V44.7991L59.696 44.6451V32.8711C59.6961 32.3124 59.5848 31.7593 59.3685 31.2442C59.1521 30.7291 58.8352 30.2623 58.4363 29.8711C58.0374 29.48 57.5644 29.1724 57.0451 28.9664ZM21.003 27.5125C19.9139 28.1003 19.1023 29.0959 18.746 30.2811L18.074 32.7171C17.9545 33.1181 17.9958 33.5499 18.1892 33.921C18.3825 34.2921 18.7128 34.5733 19.11 34.7051L23.422 36.1051L28.35 37.7011H34.3C34.8718 37.7011 35.4202 37.4739 35.8245 37.0696C36.2289 36.6653 36.456 36.1169 36.456 35.5451C36.456 34.9733 36.2289 34.4249 35.8245 34.0206C35.4202 33.6162 34.8718 33.3891 34.3 33.3891L27.958 33.2771L21.644 30.8691L22.148 29.5671L28.336 31.9191H29.4C29.6716 30.9385 30.1488 30.027 30.8 29.2451L24.556 27.1451C23.3697 26.7926 22.092 26.9247 21.003 27.5125ZM8.1198 23.7228C7.58138 24.5286 7.294 25.476 7.294 26.4451C7.294 27.0886 7.42074 27.7257 7.66699 28.3202C7.91324 28.9147 8.27417 29.4549 8.72918 29.9099C9.18418 30.3649 9.72436 30.7259 10.3189 30.9721C10.9133 31.2183 11.5505 31.3451 12.194 31.3451C13.1631 31.3451 14.1105 31.0577 14.9163 30.5193C15.7221 29.9809 16.3501 29.2156 16.721 28.3202C17.0919 27.4249 17.1889 26.4397 16.9998 25.4891C16.8108 24.5386 16.3441 23.6655 15.6588 22.9803C14.9735 22.295 14.1004 21.8283 13.1499 21.6392C12.1994 21.4502 11.2142 21.5472 10.3189 21.9181C9.42349 22.2889 8.65822 22.917 8.1198 23.7228ZM16.674 32.2831L17.36 30.0291C16.8468 30.7657 16.181 31.3832 15.408 31.8398C14.635 32.2963 13.7728 32.5812 12.88 32.6751L16.674 33.9071C16.5273 33.3757 16.5273 32.8145 16.674 32.2831ZM18.634 36.0071L3.458 31.1211L1.82 36.1751L28.42 44.7991H29.19V39.0171H28L22.274 37.1691L18.634 36.0071ZM52.458 61.8371V60.0031H52.5C52.478 59.2926 52.1755 58.6197 51.6586 58.1317C51.1418 57.6436 50.4526 57.3802 49.742 57.3991H23.142C22.4434 57.3987 21.7721 57.6704 21.2704 58.1565C20.7686 58.6425 20.4758 59.3048 20.454 60.0031V61.8371H52.458ZM29.26 55.9991H43.484V46.1991H29.26V55.9991Z" fill="white"/>
<path fill-rule="evenodd" clip-rule="evenodd" d="M25.1989 7V8.624L22.3989 12.166H25.5069V13.566H20.2989V12.6L20.4669 12.334C20.7293 12.0481 20.9769 11.749 21.2089 11.438L23.5329 8.4H19.8789V7H25.1989ZM42.1816 12.699C42.1816 13.3562 41.6488 13.889 40.9916 13.889C40.3343 13.889 39.8016 13.3562 39.8016 12.699C39.8016 12.0418 40.3343 11.509 40.9916 11.509C41.6488 11.509 42.1816 12.0418 42.1816 12.699ZM12.8936 15.6245L13.0756 15.4005C13.2443 15.2276 13.4032 15.0453 13.5516 14.8545L14.8396 13.1605H12.8516V11.7605H16.6036V13.1605L15.0356 15.1905H16.6176V16.5905H12.8936V15.6245ZM20.0195 21.3358C19.5799 20.9617 19.0642 20.6878 18.5082 20.533C17.9521 20.3783 17.369 20.3465 16.7995 20.4398C16.4112 20.4211 16.0261 20.5174 15.6924 20.7166C15.3586 20.9158 15.0912 21.2092 14.9235 21.5598C14.86 21.754 14.8554 21.9626 14.9102 22.1594C14.965 22.3562 15.0768 22.5324 15.2315 22.6658C15.743 23.0483 16.1639 23.539 16.464 24.1028C16.764 24.6667 16.936 25.2898 16.9675 25.9278C16.9485 26.1884 16.9891 26.4498 17.0861 26.6924C17.1831 26.9349 17.334 27.1522 17.5275 27.3278C17.7385 27.4689 17.9876 27.5422 18.2415 27.5378C18.4218 27.5337 18.6007 27.5055 18.7735 27.4538C19.1563 27.3755 19.5184 27.218 19.8367 26.9914C20.155 26.7647 20.4223 26.474 20.6215 26.1378C21.1177 25.0368 21.1973 23.7931 20.8455 22.6378L20.0195 21.3358ZM19.4595 25.3818C19.3569 25.553 19.2188 25.7003 19.0546 25.8138C18.8904 25.9273 18.7039 26.0043 18.5075 26.0398C18.5006 25.9466 18.5006 25.853 18.5075 25.7598C18.4116 24.276 17.7381 22.8889 16.6315 21.8958C16.7643 21.8597 16.9002 21.8362 17.0375 21.8258C17.7239 21.715 18.4275 21.8488 19.0255 22.2038L19.6695 23.0858C19.8665 23.8525 19.7923 24.6636 19.4595 25.3818Z" fill="#49AC32"/>
</svg>
