<svg width="150" height="150" viewBox="0 0 150 150" fill="none" xmlns="http://www.w3.org/2000/svg">
<path fill-rule="evenodd" clip-rule="evenodd" d="M77.5185 32.9411C77.8466 32.3421 78.3104 31.8281 78.8726 31.4402C79.5026 30.9602 79.5026 30.5702 79.5026 30.5702C79.5026 30.5702 79.4726 30.0902 78.0626 29.0402L76.8926 28.1102L78.7226 25.7402L79.8926 26.6402C80.5888 27.057 81.184 27.623 81.6353 28.2973C82.0866 28.9717 82.3828 29.7377 82.5026 30.5402C82.4855 31.188 82.323 31.8236 82.027 32.4001C81.731 32.9765 81.3091 33.479 80.7926 33.8702C80.1326 34.3802 79.9826 34.7702 79.9826 34.8902C79.9826 35.0102 80.1326 35.2202 80.4326 35.4302L81.6626 36.3002L79.9226 38.7602L78.6926 37.8902C78.1863 37.5657 77.7662 37.1232 77.4684 36.6007C77.1706 36.0782 77.0039 35.4913 76.9826 34.8902C77.0068 34.2076 77.1903 33.5402 77.5185 32.9411ZM4.5 105.812H145.412V117.722H4.5V105.812ZM145.412 90.8124V102.812H135.03V90.8124H145.412ZM145.412 82.3632V87.8124H135.03V78.3624C138.198 78.5026 144.589 79.1668 145.412 82.3632ZM134.94 75.3924C139.542 75.5367 143.098 76.3838 145.412 77.8558V63.2988H148.412V82.0237C148.471 82.3615 148.5 82.7111 148.5 83.0724H148.412V136.049H145.412V120.722H4.5V136.322H1.5V44.7324H4.5V61.0524L9.75 55.8024C10.7643 54.8009 12.0842 54.1674 13.5 54.0024C12.1097 51.8647 11.3418 49.3822 11.2822 46.8329C11.2225 44.2835 11.8735 41.7679 13.1623 39.5675C14.451 37.3671 16.3267 35.5687 18.5794 34.3737C20.8321 33.1786 23.3729 32.6341 25.9175 32.8009C28.462 32.9678 30.91 33.8395 32.9873 35.3185C35.0647 36.7974 36.6895 38.8253 37.6798 41.1752C38.6702 43.525 38.9871 46.1042 38.5951 48.6239C38.203 51.1436 37.1175 53.5045 35.46 55.4424C37.9745 53.7332 40.999 52.9378 44.029 53.1889C47.059 53.4401 49.9112 54.7225 52.11 56.8224L62.43 67.3524C64.0594 65.671 66.145 64.5031 68.43 63.9924L72.66 52.5924H98.97L101.49 37.3524H110.97L113.49 52.5924H118.77L122.94 63.7824C126.036 63.8461 128.994 65.0782 131.219 67.2315C133.445 69.3848 134.774 72.3 134.94 75.3924ZM4.5 102.812V90.8124H58.05V102.812H4.5ZM23.76 60.0024H25.08C27.861 59.9986 30.5735 59.1398 32.85 57.5424L29.58 61.2324C28.7758 62.0654 28.2155 63.103 27.96 64.2324L23.76 60.0024ZM31.5 87.8424L31.71 87.6324C33.1976 86.1508 34.3235 84.346 34.9999 82.3584C35.6763 80.3707 35.8851 78.2539 35.61 76.1724L45.03 85.4724L51.42 87.8424H31.5ZM104.04 40.3524H108.42L110.43 52.5924H102.03L104.04 40.3524ZM74.76 55.5924H98.49H113.97H116.61L119.61 63.7824H71.61L74.76 55.5924ZM70.32 66.7824H122.73C125.191 66.7824 127.552 67.7581 129.296 69.4957C131.039 71.2333 132.022 73.5911 132.03 76.0524V102.842H61.05V90.8424C62.4254 90.8136 63.7669 90.4101 64.9299 89.6753C66.0929 88.9404 67.0334 87.9022 67.65 86.6724C68.106 85.7511 68.3754 84.7487 68.4427 83.7229C68.51 82.6971 68.3738 81.6681 68.0421 80.6951C67.7103 79.7221 67.1895 78.8242 66.5095 78.0532C65.8295 77.2822 65.0039 76.6532 64.08 76.2024L61.29 75.0024C62.37 70.9824 66.09 66.7824 70.32 66.7824ZM50.04 58.9524L60.57 69.7224C59.6694 71.0732 58.972 72.549 58.5 74.1024L52.5 72.0024L42.27 61.2024L40.11 63.2724L50.76 74.4624L62.76 78.9024C63.8811 79.4681 64.7319 80.4556 65.1256 81.648C65.5194 82.8404 65.4238 84.1403 64.86 85.2624C64.2493 86.3861 63.2226 87.2259 62.0001 87.6016C60.7775 87.9774 59.4564 87.8592 58.32 87.2724L46.83 83.1024L31.98 68.4024C31.8883 68.2851 31.788 68.1748 31.68 68.0724C31.0918 67.4172 30.7664 66.5678 30.7664 65.6874C30.7664 64.8069 31.0918 63.9575 31.68 63.3024L35.49 59.3124C36.4195 58.3297 37.5342 57.5404 38.7699 56.9901C40.0055 56.4398 41.3378 56.1393 42.6901 56.1059C44.0424 56.0724 45.3879 56.3067 46.6493 56.7952C47.9107 57.2837 49.063 58.0168 50.04 58.9524ZM17.04 39.4224C18.4295 37.8034 20.2698 36.6349 22.326 36.066C24.3823 35.4971 26.5614 35.5535 28.5855 36.2281C30.6096 36.9026 32.3869 38.1647 33.6908 39.8535C34.9947 41.5422 35.7661 43.581 35.9066 45.7099C36.0471 47.8388 35.5503 49.9613 34.4797 51.8067C33.4091 53.6521 31.813 55.1369 29.8952 56.0716C27.9773 57.0063 25.8245 57.3486 23.7113 57.0549C21.5981 56.7612 19.6203 55.8447 18.03 54.4224C15.924 52.5572 14.6365 49.9382 14.4456 47.1314C14.2547 44.3247 15.1759 41.5555 17.01 39.4224H17.04ZM11.97 57.8424C12.6797 57.1604 13.6257 56.7795 14.61 56.7795C15.5943 56.7795 16.5403 57.1604 17.25 57.8424L29.25 69.8424C29.3838 70.026 29.5345 70.1967 29.7 70.3524C31.5893 72.4111 32.6124 75.1188 32.5566 77.9125C32.5007 80.7062 31.3701 83.3709 29.4 85.3524L27.6 87.1524L5.1 64.6824L11.97 57.8424ZM23.97 87.8424H4.5V68.3124L23.97 87.8424Z" fill="#0F1F3F"/>
<path fill-rule="evenodd" clip-rule="evenodd" d="M123.253 28.5608C123.484 29.4456 123.426 30.381 123.088 31.2305C123.8 31.7717 124.321 32.5263 124.575 33.3843C124.829 34.2423 124.802 35.1589 124.498 36.0005C124.207 36.9115 123.622 37.7002 122.835 38.2431C122.048 38.786 121.103 39.0524 120.148 39.0005C119.817 39.8346 119.228 40.541 118.467 41.0161C117.706 41.4912 116.812 41.71 115.918 41.6405H115.648C114.735 41.5976 113.86 41.2625 113.153 40.6845C112.445 40.1064 111.942 39.3162 111.718 38.4305C110.941 38.3614 110.197 38.0833 109.566 37.6256C108.934 37.168 108.438 36.5479 108.131 35.8312C107.823 35.1145 107.715 34.3279 107.819 33.5549C107.922 32.7818 108.233 32.0512 108.718 31.4405C107.82 31.4278 106.95 31.134 106.228 30.6005C105.506 31.134 104.635 31.4278 103.738 31.4405C104.124 31.9518 104.387 32.5453 104.507 33.1749C104.626 33.8044 104.599 34.4531 104.428 35.0705C104.204 35.9562 103.701 36.7464 102.993 37.3245C102.285 37.9025 101.411 38.2376 100.498 38.2805C100.283 39.1545 99.7941 39.937 99.1035 40.5143C98.4129 41.0916 97.5561 41.4336 96.6578 41.4905H96.3878C95.5199 41.4953 94.6716 41.2331 93.9578 40.7393C93.244 40.2456 92.6994 39.5443 92.3978 38.7305C91.4884 38.7953 90.5823 38.5646 89.8147 38.0726C89.047 37.5807 88.4588 36.8538 88.1378 36.0005C87.8302 35.1359 87.8163 34.194 88.0983 33.3208C88.3804 32.4475 88.9426 31.6917 89.6978 31.1705C89.3551 30.3207 89.2956 29.3831 89.528 28.4968C89.7603 27.6105 90.2723 26.8228 90.9878 26.2505C91.6876 25.6583 92.562 25.3114 93.4774 25.2626C94.3928 25.2139 95.2991 25.466 96.0578 25.9805C96.4716 25.6349 96.9498 25.3748 97.4647 25.2152C97.9797 25.0556 98.5211 24.9996 99.0578 25.0505C98.5878 24.501 98.2688 23.8387 98.1321 23.1286C97.9953 22.4186 98.0455 21.6852 98.2778 21.0005C98.5572 20.1298 99.1057 19.3702 99.8443 18.8311C100.583 18.292 101.473 18.0012 102.388 18.0005C102.655 17.1222 103.2 16.3545 103.941 15.8134C104.683 15.2722 105.58 14.9869 106.498 15.0005C107.386 15.0206 108.245 15.3219 108.951 15.8609C109.657 16.4 110.174 17.149 110.428 18.0005C111.34 18.0103 112.226 18.3046 112.963 18.8424C113.7 19.3802 114.25 20.1347 114.538 21.0005C114.774 21.7015 114.823 22.4519 114.681 23.1778C114.539 23.9037 114.211 24.5801 113.728 25.1405C114.265 25.0896 114.806 25.1456 115.321 25.3052C115.836 25.4648 116.314 25.7249 116.728 26.0705C117.489 25.5644 118.393 25.3149 119.306 25.3584C120.219 25.4018 121.095 25.736 121.805 26.3121C122.515 26.8882 123.022 27.6761 123.253 28.5608ZM101.107 34.983C101.364 34.8047 101.543 34.5357 101.608 34.2305V34.3205C101.703 34.0141 101.675 33.6826 101.529 33.3968C101.383 33.111 101.132 32.8934 100.828 32.7905L98.7278 31.8605L99.6578 29.7605C99.7974 29.4767 99.8223 29.15 99.7273 28.8483C99.6323 28.5466 99.4248 28.2931 99.1478 28.1405C98.8989 27.9555 98.5881 27.8741 98.2805 27.9132C97.9729 27.9524 97.6924 28.1091 97.4978 28.3505L95.9978 30.0005L94.3178 28.5305C94.0801 28.3468 93.7868 28.2497 93.4864 28.2552C93.186 28.2608 92.8965 28.3686 92.6657 28.561C92.4349 28.7533 92.2767 29.0186 92.217 29.3131C92.1574 29.6075 92.2 29.9135 92.3378 30.1805L93.4778 32.1605L91.4978 33.3305C91.239 33.4709 91.0391 33.6995 90.9345 33.9747C90.8299 34.25 90.8276 34.5536 90.9278 34.8305C91.0245 35.1253 91.2316 35.3712 91.5057 35.5167C91.7797 35.6621 92.0995 35.6957 92.3978 35.6105L94.6478 35.1605L95.1578 37.3805C95.2096 37.6909 95.3784 37.9697 95.6296 38.1595C95.8807 38.3492 96.195 38.4355 96.5078 38.4005C96.8187 38.3932 97.1153 38.2685 97.3379 38.0515C97.5606 37.8344 97.6927 37.541 97.7078 37.2305L97.9478 34.9505L100.228 35.1905C100.537 35.2354 100.851 35.1613 101.107 34.983ZM104.698 27.9605L106.318 26.3405L107.938 28.0505C108.161 28.2535 108.447 28.374 108.748 28.3918C109.05 28.4096 109.348 28.3236 109.593 28.1482C109.839 27.9728 110.017 27.7186 110.098 27.4278C110.179 27.1371 110.158 26.8275 110.038 26.5505L108.988 24.5105L111.058 23.4605C111.337 23.3237 111.555 23.0889 111.671 22.801C111.788 22.5131 111.793 22.1924 111.688 21.9005C111.597 21.6016 111.402 21.3456 111.137 21.1801C110.872 21.0146 110.556 20.9508 110.248 21.0005L108.118 21.3605L107.758 19.0805C107.721 18.7756 107.571 18.4958 107.337 18.296C107.104 18.0961 106.805 17.9907 106.498 18.0005C106.332 17.9751 106.163 17.983 106 18.0238C105.838 18.0645 105.685 18.1373 105.551 18.2379C105.417 18.3385 105.304 18.4648 105.219 18.6095C105.135 18.7542 105.08 18.9143 105.058 19.0805L104.668 21.3605L102.418 21.0005C102.139 20.9292 101.843 20.9558 101.581 21.0759C101.319 21.196 101.106 21.4023 100.978 21.6605C100.865 21.9519 100.867 22.2753 100.984 22.565C101.101 22.8548 101.324 23.0891 101.608 23.2205L103.648 24.2705L102.628 26.3405C102.47 26.6084 102.423 26.927 102.496 27.2292C102.569 27.5313 102.756 27.7935 103.018 27.9605C103.246 28.1735 103.546 28.292 103.858 28.292C104.17 28.292 104.47 28.1735 104.698 27.9605ZM120.917 35.7258C121.188 35.5765 121.395 35.3325 121.498 35.0405C121.617 34.7736 121.637 34.473 121.554 34.1927C121.472 33.9123 121.292 33.6705 121.048 33.5105L119.068 32.3705L120.208 30.3605C120.373 30.0944 120.436 29.7773 120.385 29.4684C120.333 29.1594 120.171 28.8797 119.929 28.6813C119.687 28.483 119.38 28.3796 119.067 28.3905C118.754 28.4014 118.456 28.5258 118.228 28.7405L116.518 30.2705L114.958 28.5605C114.759 28.3252 114.479 28.1732 114.174 28.1343C113.868 28.0954 113.559 28.1725 113.308 28.3505C113.041 28.5131 112.845 28.7688 112.756 29.0681C112.667 29.3674 112.693 29.6889 112.828 29.9705L113.728 32.0705L111.658 33.0005C111.491 33.0448 111.336 33.1228 111.2 33.2297C111.065 33.3366 110.953 33.4701 110.872 33.6219C110.79 33.7738 110.741 33.9408 110.726 34.1125C110.712 34.2842 110.733 34.4571 110.788 34.6205C110.871 34.9214 111.059 35.183 111.317 35.3588C111.575 35.5346 111.887 35.6131 112.198 35.5805L114.478 35.3405L114.718 37.6205C114.765 37.925 114.919 38.2027 115.153 38.4034C115.387 38.604 115.685 38.7143 115.993 38.7143C116.301 38.7143 116.599 38.604 116.833 38.4034C117.067 38.2027 117.221 37.925 117.268 37.6205L117.778 35.3705L120.028 35.8505C120.33 35.9196 120.646 35.8752 120.917 35.7258ZM86.3102 39.5684V40.3184L86.3402 40.1684C87.3666 40.1883 88.3431 40.6151 89.0548 41.3549C89.7665 42.0947 90.1551 43.087 90.1352 44.1134C90.1153 45.1397 89.6885 46.1162 88.9487 46.8279C88.2089 47.5396 87.2166 47.9283 86.1902 47.9084C85.8501 49.2285 85.0706 50.3934 83.98 51.2114C82.8894 52.0293 81.5528 52.4515 80.1902 52.4084H78.3902C76.7848 52.4088 75.2428 51.7815 74.0937 50.6604C72.9446 49.5393 72.2794 48.0133 72.2402 46.4084V39.5684H86.3102ZM82.4316 48.4397C82.9942 47.8771 83.3102 47.114 83.3102 46.3184L83.4302 42.5684H75.3602V46.3184C75.3597 46.7253 75.442 47.128 75.6021 47.5021C75.7621 47.8763 75.9966 48.2139 76.2913 48.4945C76.5859 48.7752 76.9346 48.9929 77.3161 49.1345C77.6975 49.2762 78.1038 49.3387 78.5102 49.3184H80.3102C81.1059 49.3184 81.8689 49.0023 82.4316 48.4397ZM86.3102 43.3484V44.9084V44.9984C86.5021 44.9616 86.6752 44.8591 86.7996 44.7085C86.9241 44.558 86.9922 44.3687 86.9922 44.1734C86.9922 43.978 86.9241 43.7887 86.7996 43.6382C86.6752 43.4876 86.5021 43.3851 86.3102 43.3484Z" fill="#49AC32"/>
</svg>
