<svg width="70" height="70" viewBox="0 0 70 70" fill="none" xmlns="http://www.w3.org/2000/svg">
<path fill-rule="evenodd" clip-rule="evenodd" d="M36.1745 15.3726C36.3277 15.0931 36.5441 14.8532 36.8064 14.6722C37.1004 14.4482 37.1004 14.2662 37.1004 14.2662C37.1004 14.2662 37.0864 14.0422 36.4284 13.5522L35.8824 13.1182L36.7364 12.0122L37.2824 12.4322C37.6073 12.6267 37.8851 12.8908 38.0957 13.2055C38.3063 13.5202 38.4445 13.8777 38.5004 14.2522C38.4925 14.5545 38.4166 14.8511 38.2785 15.1201C38.1404 15.3891 37.9435 15.6236 37.7024 15.8062C37.3944 16.0442 37.3244 16.2262 37.3244 16.2822C37.3244 16.3382 37.3944 16.4362 37.5344 16.5342L38.1084 16.9402L37.2964 18.0882L36.7224 17.6822C36.4861 17.5307 36.2901 17.3242 36.1511 17.0804C36.0122 16.8366 35.9344 16.5627 35.9244 16.2822C35.9357 15.9637 36.0214 15.6522 36.1745 15.3726ZM2.09922 49.3792H67.8582V54.9372H2.09922V49.3792ZM67.8582 42.3792V47.9792H63.0132V42.3792H67.8582ZM67.8582 38.4363V40.9792H63.0132V36.5692C64.4917 36.6346 67.4743 36.9446 67.8582 38.4363ZM62.9712 35.1832C65.1188 35.2506 66.7784 35.6459 67.8582 36.3328V29.5396H69.2582V38.2778C69.2855 38.4355 69.2992 38.5986 69.2992 38.7672H69.2582V63.4895H67.8582V56.3372H2.09922V63.6172H0.699219V20.8752H2.09922V28.4912L4.54922 26.0412C5.02254 25.5739 5.63853 25.2782 6.29922 25.2012C5.65043 24.2036 5.29207 23.0451 5.26424 21.8554C5.2364 20.6657 5.54019 19.4918 6.14161 18.4649C6.74303 17.4381 7.61835 16.5988 8.66961 16.0411C9.72086 15.4835 10.9066 15.2293 12.094 15.3072C13.2815 15.3851 14.4239 15.7919 15.3933 16.482C16.3627 17.1722 17.121 18.1186 17.5831 19.2152C18.0453 20.3118 18.1932 21.5154 18.0103 22.6912C17.8273 23.8671 17.3207 24.9689 16.5472 25.8732C17.7206 25.0756 19.1321 24.7044 20.5461 24.8216C21.9601 24.9388 23.2911 25.5373 24.3172 26.5172L29.1332 31.4312C29.8936 30.6466 30.8669 30.1015 31.9332 29.8632L33.9072 24.5432H46.1852L47.3612 17.4312H51.7852L52.9612 24.5432H55.4252L57.3712 29.7652C58.8161 29.7949 60.1963 30.3699 61.2349 31.3748C62.2735 32.3797 62.8938 33.7401 62.9712 35.1832ZM2.09922 47.9792V42.3792H27.0892V47.9792H2.09922ZM11.0872 28.0012H11.7032C13.001 27.9994 14.2669 27.5986 15.3292 26.8532L13.8032 28.5752C13.4279 28.964 13.1664 29.4482 13.0472 29.9752L11.0872 28.0012ZM14.6992 40.9932L14.7972 40.8952C15.4915 40.2038 16.0168 39.3616 16.3325 38.434C16.6482 37.5064 16.7456 36.5186 16.6172 35.5472L21.0132 39.8872L23.9952 40.9932H14.6992ZM48.5512 18.8312H50.5952L51.5332 24.5432H47.6132L48.5512 18.8312ZM34.8872 25.9432H45.9612H53.1852H54.4172L55.8172 29.7652H33.4172L34.8872 25.9432ZM32.8152 31.1652H57.2732C58.4218 31.1652 59.5236 31.6205 60.3371 32.4314C61.1506 33.2423 61.6095 34.3426 61.6132 35.4912V47.9932H28.4892V42.3932C29.1311 42.3798 29.7571 42.1915 30.2999 41.8485C30.8426 41.5056 31.2815 41.0211 31.5692 40.4472C31.782 40.0173 31.9077 39.5495 31.9391 39.0708C31.9705 38.5921 31.907 38.1119 31.7522 37.6578C31.5974 37.2037 31.3543 36.7847 31.037 36.4249C30.7197 36.0651 30.3344 35.7716 29.9032 35.5612L28.6012 35.0012C29.1052 33.1252 30.8412 31.1652 32.8152 31.1652ZM23.3512 27.5112L28.2652 32.5372C27.8449 33.1676 27.5195 33.8563 27.2992 34.5812L24.4992 33.6012L19.7252 28.5612L18.7172 29.5272L23.6872 34.7492L29.2872 36.8212C29.8104 37.0852 30.2074 37.546 30.3912 38.1025C30.5749 38.659 30.5303 39.2656 30.2672 39.7892C29.9822 40.3136 29.5031 40.7055 28.9326 40.8809C28.3621 41.0562 27.7456 41.001 27.2152 40.7272L21.8532 38.7812L14.9232 31.9212C14.8804 31.8665 14.8336 31.815 14.7832 31.7672C14.5087 31.4615 14.3569 31.0651 14.3569 30.6542C14.3569 30.2433 14.5087 29.8469 14.7832 29.5412L16.5612 27.6792C16.995 27.2206 17.5152 26.8523 18.0918 26.5955C18.6685 26.3387 19.2902 26.1984 19.9213 26.1828C20.5523 26.1672 21.1802 26.2765 21.7689 26.5045C22.3575 26.7325 22.8953 27.0746 23.3512 27.5112ZM7.95122 18.3972C8.59966 17.6417 9.45844 17.0964 10.418 16.8309C11.3776 16.5654 12.3946 16.5917 13.3391 16.9065C14.2837 17.2213 15.1131 17.8103 15.7216 18.5984C16.3301 19.3864 16.6901 20.3379 16.7556 21.3314C16.8212 22.3249 16.5894 23.3153 16.0897 24.1766C15.5901 25.0378 14.8453 25.7306 13.9503 26.1668C13.0553 26.603 12.0507 26.7628 11.0645 26.6257C10.0783 26.4886 9.15534 26.061 8.41322 25.3972C7.43042 24.5268 6.82957 23.3046 6.7405 21.9948C6.65143 20.685 7.0813 19.3927 7.93722 18.3972H7.95122ZM5.58522 26.9932C5.9164 26.6749 6.3579 26.4972 6.81722 26.4972C7.27654 26.4972 7.71804 26.6749 8.04922 26.9932L13.6492 32.5932C13.7117 32.6789 13.782 32.7586 13.8592 32.8312C14.7409 33.7919 15.2184 35.0555 15.1923 36.3593C15.1662 37.663 14.6386 38.9065 13.7192 39.8312L12.8792 40.6712L2.37922 30.1852L5.58522 26.9932ZM11.1852 40.9932H2.09922V31.8792L11.1852 40.9932Z" fill="white"/>
<path fill-rule="evenodd" clip-rule="evenodd" d="M57.519 13.3284C57.6267 13.7413 57.5996 14.1778 57.4418 14.5742C57.7742 14.8268 58.0174 15.1789 58.1357 15.5793C58.2541 15.9797 58.2415 16.4075 58.0998 16.8002C57.9641 17.2253 57.6911 17.5934 57.3238 17.8468C56.9564 18.1001 56.5154 18.2244 56.0698 18.2002C55.9155 18.5895 55.6406 18.9191 55.2854 19.1408C54.9301 19.3626 54.5132 19.4647 54.0958 19.4322H53.9698C53.5438 19.4122 53.1356 19.2558 52.8054 18.9861C52.4752 18.7163 52.2404 18.3476 52.1358 17.9342C51.7732 17.902 51.4262 17.7722 51.1315 17.5586C50.8367 17.3451 50.6053 17.0557 50.4618 16.7212C50.3182 16.3868 50.2679 16.0197 50.3161 15.6589C50.3644 15.2982 50.5094 14.9572 50.7358 14.6722C50.317 14.6663 49.9106 14.5292 49.5738 14.2802C49.237 14.5292 48.8306 14.6663 48.4118 14.6722C48.592 14.9109 48.7148 15.1878 48.7706 15.4816C48.8265 15.7754 48.8139 16.0781 48.7338 16.3662C48.6291 16.7796 48.3944 17.1483 48.0641 17.4181C47.7339 17.6878 47.3257 17.8442 46.8998 17.8642C46.7993 18.2721 46.5714 18.6373 46.2491 18.9067C45.9268 19.1761 45.527 19.3357 45.1078 19.3622H44.9818C44.5768 19.3645 44.1809 19.2421 43.8478 19.0117C43.5147 18.7813 43.2605 18.454 43.1198 18.0742C42.6954 18.1045 42.2725 17.9968 41.9143 17.7672C41.556 17.5376 41.2816 17.1985 41.1318 16.8002C40.9882 16.3968 40.9817 15.9572 41.1133 15.5497C41.245 15.1422 41.5073 14.7895 41.8598 14.5462C41.6999 14.1497 41.6721 13.7121 41.7805 13.2985C41.8889 12.8849 42.1279 12.5173 42.4618 12.2502C42.7883 11.9739 43.1964 11.812 43.6236 11.7892C44.0508 11.7665 44.4737 11.8841 44.8278 12.1242C45.0209 11.963 45.244 11.8416 45.4843 11.7671C45.7246 11.6926 45.9773 11.6665 46.2278 11.6902C46.0084 11.4338 45.8596 11.1247 45.7957 10.7934C45.7319 10.462 45.7554 10.1198 45.8638 9.80022C45.9942 9.39391 46.2501 9.03945 46.5948 8.78786C46.9394 8.53628 47.355 8.40055 47.7818 8.40022C47.9063 7.99036 48.1607 7.63212 48.5067 7.37957C48.8527 7.12702 49.2715 6.99387 49.6998 7.00022C50.1142 7.00962 50.5151 7.1502 50.8446 7.40176C51.1741 7.65332 51.4154 8.00289 51.5338 8.40022C51.9594 8.40479 52.3731 8.54215 52.7169 8.79313C53.0608 9.04411 53.3177 9.39619 53.4518 9.80022C53.5619 10.1274 53.585 10.4775 53.5187 10.8163C53.4524 11.155 53.2991 11.4707 53.0738 11.7322C53.3242 11.7085 53.5769 11.7346 53.8172 11.8091C54.0575 11.8836 54.2807 12.005 54.4738 12.1662C54.8292 11.9301 55.2507 11.8136 55.6769 11.8339C56.1032 11.8542 56.5118 12.0101 56.8431 12.279C57.1745 12.5478 57.4113 12.9155 57.519 13.3284ZM47.1842 16.3254C47.3038 16.2422 47.3873 16.1167 47.4178 15.9742V16.0162C47.4622 15.8732 47.449 15.7186 47.381 15.5852C47.313 15.4518 47.1956 15.3502 47.0538 15.3022L46.0738 14.8682L46.5078 13.8882C46.5729 13.7558 46.5845 13.6033 46.5402 13.4625C46.4959 13.3218 46.399 13.2035 46.2698 13.1322C46.1536 13.0459 46.0086 13.0079 45.865 13.0262C45.7215 13.0444 45.5906 13.1176 45.4998 13.2302L44.7998 14.0002L44.0158 13.3142C43.9048 13.2285 43.768 13.1832 43.6278 13.1858C43.4876 13.1884 43.3525 13.2387 43.2448 13.3284C43.1371 13.4182 43.0632 13.542 43.0354 13.6794C43.0076 13.8168 43.0275 13.9596 43.0918 14.0842L43.6238 15.0082L42.6998 15.5542C42.579 15.6197 42.4857 15.7264 42.4369 15.8549C42.3881 15.9833 42.387 16.125 42.4338 16.2542C42.4789 16.3918 42.5755 16.5066 42.7034 16.5744C42.8313 16.6423 42.9805 16.658 43.1198 16.6182L44.1698 16.4082L44.4078 17.4442C44.4319 17.5891 44.5107 17.7192 44.6279 17.8078C44.7451 17.8963 44.8918 17.9365 45.0378 17.9202C45.1828 17.9168 45.3213 17.8587 45.4252 17.7574C45.5291 17.6561 45.5907 17.5192 45.5978 17.3742L45.7098 16.3102L46.7738 16.4222C46.9179 16.4432 47.0647 16.4086 47.1842 16.3254ZM48.8598 13.0482L49.6158 12.2922L50.3718 13.0902C50.4759 13.185 50.6094 13.2412 50.75 13.2495C50.8906 13.2578 51.0298 13.2177 51.1443 13.1358C51.2589 13.054 51.342 12.9353 51.3798 12.7997C51.4175 12.664 51.4076 12.5195 51.3518 12.3902L50.8618 11.4382L51.8278 10.9482C51.9579 10.8844 52.0598 10.7748 52.1141 10.6405C52.1683 10.5061 52.1711 10.3565 52.1218 10.2202C52.0796 10.0807 51.9882 9.96129 51.8646 9.88405C51.741 9.80681 51.5936 9.77703 51.4498 9.80022L50.4558 9.96822L50.2878 8.90422C50.2704 8.76197 50.2004 8.63138 50.0916 8.53811C49.9828 8.44485 49.843 8.39566 49.6998 8.40022C49.6224 8.38836 49.5435 8.39206 49.4677 8.41109C49.3918 8.43011 49.3205 8.46409 49.2579 8.51103C49.1953 8.55796 49.1427 8.61692 49.1032 8.68443C49.0637 8.75195 49.038 8.82667 49.0278 8.90422L48.8458 9.96822L47.7958 9.80022C47.6654 9.76694 47.5276 9.77936 47.4053 9.83541C47.283 9.89146 47.1836 9.98775 47.1238 10.1082C47.0711 10.2442 47.0722 10.3951 47.1268 10.5303C47.1814 10.6656 47.2855 10.7749 47.4178 10.8362L48.3698 11.3262L47.8938 12.2922C47.8203 12.4173 47.7982 12.5659 47.8322 12.707C47.8661 12.848 47.9534 12.9703 48.0758 13.0482C48.1821 13.1476 48.3222 13.2029 48.4678 13.2029C48.6133 13.2029 48.7534 13.1476 48.8598 13.0482ZM56.4289 16.6721C56.5554 16.6023 56.6518 16.4885 56.6998 16.3522C56.7553 16.2277 56.7646 16.0874 56.7262 15.9566C56.6877 15.8257 56.6039 15.7129 56.4898 15.6382L55.5658 15.1062L56.0978 14.1682C56.1749 14.0441 56.2042 13.8961 56.1803 13.7519C56.1563 13.6077 56.0807 13.4772 55.9676 13.3846C55.8545 13.2921 55.7116 13.2438 55.5655 13.2489C55.4194 13.254 55.2802 13.312 55.1738 13.4122L54.3758 14.1262L53.6478 13.3282C53.555 13.2184 53.4244 13.1475 53.2818 13.1293C53.1393 13.1112 52.9951 13.1472 52.8778 13.2302C52.7534 13.3061 52.6617 13.4254 52.6203 13.5651C52.5789 13.7048 52.5908 13.8548 52.6538 13.9862L53.0738 14.9662L52.1078 15.4002C52.03 15.4209 51.9574 15.4573 51.8943 15.5072C51.8312 15.5571 51.779 15.6194 51.741 15.6902C51.7029 15.7611 51.6798 15.839 51.673 15.9192C51.6663 15.9993 51.6761 16.08 51.7018 16.1562C51.7407 16.2967 51.8282 16.4188 51.9487 16.5008C52.0692 16.5828 52.2148 16.6195 52.3598 16.6042L53.4238 16.4922L53.5358 17.5562C53.5576 17.6983 53.6297 17.8279 53.7388 17.9216C53.8479 18.0152 53.987 18.0667 54.1308 18.0667C54.2746 18.0667 54.4136 18.0152 54.5228 17.9216C54.6319 17.8279 54.7039 17.6983 54.7258 17.5562L54.9638 16.5062L56.0138 16.7302C56.1546 16.7625 56.3023 16.7418 56.4289 16.6721ZM40.2789 18.4652V18.8152L40.2929 18.7452C40.7719 18.7545 41.2275 18.9537 41.5597 19.2989C41.8918 19.6442 42.0732 20.1073 42.0639 20.5862C42.0546 21.0652 41.8554 21.5209 41.5102 21.853C41.1649 22.1851 40.7019 22.3665 40.2229 22.3572C40.0642 22.9733 39.7004 23.5169 39.1914 23.8986C38.6825 24.2803 38.0587 24.4774 37.4229 24.4572H36.5829C35.8337 24.4575 35.1141 24.1647 34.5778 23.6415C34.0416 23.1183 33.7312 22.4062 33.7129 21.6572V18.4652H40.2789ZM38.4688 22.6052C38.7314 22.3426 38.8789 21.9865 38.8789 21.6152L38.9349 19.8652H35.1689V21.6152C35.1687 21.8051 35.207 21.9931 35.2817 22.1677C35.3564 22.3423 35.4659 22.4998 35.6034 22.6308C35.7409 22.7617 35.9036 22.8634 36.0816 22.9295C36.2596 22.9955 36.4492 23.0247 36.6389 23.0152H37.4789C37.8502 23.0152 38.2063 22.8677 38.4688 22.6052ZM40.2789 20.2292V20.9572V20.9992C40.3684 20.9821 40.4492 20.9343 40.5073 20.864C40.5654 20.7937 40.5971 20.7054 40.5971 20.6142C40.5971 20.5231 40.5654 20.4347 40.5073 20.3645C40.4492 20.2942 40.3684 20.2464 40.2789 20.2292Z" fill="#49AC32"/>
</svg>
