<svg width="70" height="71" viewBox="0 0 70 71" fill="none" xmlns="http://www.w3.org/2000/svg">
<path fill-rule="evenodd" clip-rule="evenodd" d="M54.4308 11.7771C54.5554 11.7771 54.6772 11.7401 54.7808 11.6709C54.8844 11.6017 54.9651 11.5033 55.0128 11.3882C55.0605 11.2731 55.073 11.1464 55.0487 11.0242C55.0244 10.902 54.9644 10.7897 54.8763 10.7016C54.7881 10.6135 54.6759 10.5535 54.5537 10.5292C54.4315 10.5049 54.3048 10.5174 54.1897 10.565C54.0746 10.6127 53.9762 10.6935 53.907 10.7971C53.8377 10.9007 53.8008 11.0225 53.8008 11.1471C53.8008 11.2298 53.8171 11.3117 53.8487 11.3882C53.8804 11.4646 53.9268 11.5341 53.9853 11.5926C54.0438 11.6511 54.1133 11.6975 54.1897 11.7291C54.2661 11.7608 54.348 11.7771 54.4308 11.7771ZM41.6078 17.4774L39.2698 11.1214L36.8058 16.0634H31.0098V17.4634H37.6738L39.0738 14.6494L41.3838 20.9354L43.6658 16.5534H49.3638V15.1534H42.8118L41.6078 17.4774ZM54.0774 12.8997C54.1828 12.8322 54.3059 12.7977 54.4311 12.8004C54.5958 12.8041 54.7524 12.8721 54.8676 12.9898C54.9827 13.1076 55.0471 13.2658 55.0471 13.4304C55.0471 13.5556 55.0097 13.678 54.9399 13.7819C54.87 13.8858 54.7708 13.9665 54.6549 14.0137C54.5389 14.061 54.4115 14.0726 54.289 14.0471C54.1664 14.0217 54.0542 13.9603 53.9667 13.8707C53.8791 13.7812 53.8203 13.6677 53.7976 13.5445C53.7749 13.4214 53.7893 13.2943 53.8392 13.1795C53.889 13.0647 53.9719 12.9673 54.0774 12.8997Z" fill="#49AC32"/>
<path fill-rule="evenodd" clip-rule="evenodd" d="M58.3257 7.2002H26.8957V25.0222H58.3257V7.2002ZM28.2957 8.6002H50.6957V23.6222H28.2957V8.6002ZM56.9257 23.6222H52.1517V8.6002H56.9257V23.6222ZM55.1336 17.1123H53.7336V21.1583H55.1336V17.1123ZM68.6004 36.5031V29.5031H70.0004V63.4251H68.6004V56.0891H2.80039V63.4391H1.40039V42.3551V36.4331V20.6971H2.80039V33.8011C3.30951 33.4403 3.91283 33.236 4.53639 33.2131H8.84839C7.99289 32.5407 7.32256 31.6617 6.9005 30.6589C6.47844 29.656 6.31853 28.5622 6.43583 27.4804C6.55312 26.3987 6.94377 25.3646 7.57099 24.4755C8.19821 23.5864 9.04137 22.8715 10.0211 22.3982C11.0008 21.9248 12.0849 21.7086 13.1713 21.7698C14.2576 21.8311 15.3105 22.1677 16.2309 22.7481C17.1512 23.3286 17.9087 24.1337 18.4321 25.0876C18.9554 26.0416 19.2274 27.113 19.2224 28.2011C19.2183 29.0013 19.0665 29.794 18.7744 30.5391C19.5552 29.6163 20.5887 28.9418 21.7478 28.5986C22.9069 28.2553 24.141 28.2583 25.2984 28.6071L31.9904 30.8051C32.8557 30.067 33.9475 29.6471 35.0844 29.6151H60.1024C61.5758 29.621 62.9903 30.1947 64.0515 31.2168C65.1128 32.239 65.7392 33.6309 65.8004 35.1031C66.8354 35.3301 67.7977 35.8113 68.6004 36.5031ZM68.6004 42.3551H65.8004V47.9551H68.6004V42.3551ZM60.0464 31.1551H35.1124L35.0844 31.1131C33.0684 31.1131 31.2904 33.1851 30.8004 35.2011H35.5044C36.4624 35.2011 37.3811 35.5816 38.0585 36.259C38.7358 36.9364 39.1164 37.8551 39.1164 38.8131C39.1164 39.771 38.7358 40.6898 38.0585 41.3671C37.3811 42.0445 36.4624 42.4251 35.5044 42.4251L30.8004 42.3551V47.9551H64.4004V35.4531C64.3893 34.3069 63.9252 33.2116 63.1095 32.4064C62.2938 31.6012 61.1926 31.1513 60.0464 31.1551ZM29.4004 42.3691H2.80039V47.9691H29.4004V42.3691ZM24.6684 40.9551L19.0684 39.1491C19.0821 39.3588 19.0821 39.5693 19.0684 39.7791V40.9551H24.6684ZM30.8984 32.0091L24.8784 30.0351C24.2699 29.8482 23.6304 29.7843 22.997 29.8468C22.3636 29.9094 21.7489 30.0972 21.1888 30.3994C20.6286 30.7017 20.1341 31.1122 19.7341 31.6073C19.334 32.1023 19.0363 32.672 18.8584 33.2831L18.1164 35.7471C18.0707 35.9499 18.0707 36.1603 18.1164 36.3631C18.3362 36.7091 18.5236 37.0747 18.6764 37.4551C18.842 37.6029 19.0379 37.7128 19.2504 37.7771L29.1904 40.9831H30.8704H35.5884C36.175 40.9831 36.7377 40.75 37.1525 40.3352C37.5673 39.9204 37.8004 39.3577 37.8004 38.7711C37.8004 38.1844 37.5673 37.6218 37.1525 37.207C36.7377 36.7921 36.175 36.5591 35.5884 36.5591H29.0784L22.0784 33.8711L22.5824 32.5551L29.4004 35.2011C29.637 34.0325 30.1508 32.9378 30.8984 32.0091ZM16.9404 34.9631L17.5704 32.8351C17.6268 32.6772 17.6922 32.5376 17.7594 32.3941C17.7757 32.3594 17.792 32.3245 17.8084 32.2891C17.2156 33.0328 16.4648 33.6354 15.6104 34.0531C16.0893 34.3008 16.536 34.6064 16.9404 34.9631ZM8.62186 25.5184C8.06946 26.3408 7.77316 27.3084 7.77039 28.2991H7.79839C7.79834 29.6248 8.3221 30.8969 9.25559 31.8382C10.1891 32.7796 11.4567 33.314 12.7824 33.3251C13.7731 33.3251 14.7415 33.0315 15.5654 32.4814C16.3894 31.9312 17.0318 31.1493 17.4115 30.2343C17.7913 29.3193 17.8913 28.3123 17.6991 27.3404C17.5068 26.3686 17.0309 25.4755 16.3313 24.774C15.6318 24.0725 14.74 23.5941 13.7687 23.3991C12.7974 23.2041 11.7901 23.3014 10.8741 23.6786C9.958 24.0558 9.17427 24.696 8.62186 25.5184ZM12.6004 34.7111H4.53639C4.07839 34.7111 3.63894 34.892 3.31378 35.2146C2.98861 35.5371 2.80408 35.9751 2.80039 36.4331V40.9551H17.7524V39.7791C17.7413 39.2256 17.6421 38.6773 17.4584 38.1551C17.1389 37.7794 16.9133 37.3331 16.8004 36.8531C16.3254 36.1833 15.6953 35.6386 14.9638 35.2656C14.2324 34.8925 13.4214 34.7023 12.6004 34.7111ZM2.80039 49.3411V54.6891H68.6004V49.3411H29.4004H2.80039ZM65.8004 40.9551H68.6004V39.0091C68.6004 38.0011 67.0604 36.9511 65.8004 36.6011V40.9551Z" fill="white"/>
</svg>
