<svg width="142" height="36" viewBox="0 0 142 36" fill="none" xmlns="http://www.w3.org/2000/svg">
<g clip-path="url(#clip0_2755_67200)">
<g clip-path="url(#clip1_2755_67200)">
<path fill-rule="evenodd" clip-rule="evenodd" d="M102.056 13.6901H98.4613C98.4613 8.11268 93.9677 3.5493 88.4754 3.5493C82.9831 3.5493 78.4895 8.11268 78.4895 13.6901H74.8945C74.8945 6.08451 80.986 0 88.3755 0C95.9649 0 102.056 6.08451 102.056 13.6901Z" fill="#49AC32"/>
<path fill-rule="evenodd" clip-rule="evenodd" d="M68.903 9.73479L70.5008 8.11226C68.5036 5.27282 64.2096 4.05592 60.5148 5.07C56.9199 6.28691 54.4234 9.8362 54.5233 13.6897C54.6231 17.7461 57.3193 21.0925 61.114 22.1066C64.6091 23.1207 68.903 21.5996 70.5008 18.963C70.2511 18.7094 69.9765 18.4559 69.7019 18.2024C69.4273 17.9489 69.1527 17.6954 68.903 17.4418C65.408 20.5855 61.6133 20.7883 59.0169 18.0503C56.7202 15.6165 56.6203 11.5601 59.0169 9.12634C60.2153 7.90944 61.6133 7.30099 63.211 7.19958C65.5078 7.09817 67.4051 8.01085 68.903 9.73479ZM38.8462 4.76583C39.6821 4.76583 40.5068 4.75446 41.3278 4.74314C42.9588 4.72066 44.5752 4.69837 46.2358 4.76583C49.2315 4.96865 51.4285 7.40245 51.3286 10.4447C51.2287 13.3856 48.932 15.7179 45.9362 15.8194H41.4425V22.0053H38.8462V4.76583ZM43.1325 13.4086H43.1326C44.153 13.4309 45.1445 13.4527 46.1359 13.3855C47.6338 13.2841 48.6324 11.9658 48.6324 10.4447C48.7323 9.02499 47.7337 7.50386 46.3356 7.40245C45.2705 7.26724 44.2053 7.31231 43.1401 7.35738C42.6075 7.37992 42.075 7.40245 41.5424 7.40245V13.3855C42.0825 13.3855 42.6113 13.3971 43.1324 13.4086H43.1325H43.1325ZM0 4.76569H13.6807V22.0051H11.0844V7.30091H2.6962V22.0051H0V4.76569ZM109.545 14.6025H117.933V22.0054H120.529V4.86733H117.933V11.9659H109.445V4.86733H106.849V22.0054H109.545V14.6025ZM72.5984 34.5798H71.5V29.0024H72.4986V33.2615L74.8952 29.0024H75.9937V34.5798H74.9951V30.3207L72.5984 34.5798ZM66.507 34.5798H65.4086V29.0024H66.4072V33.2615L68.8038 29.0024H69.9023V34.5798H68.9037V30.3207L66.507 34.5798ZM61.4142 29.8136V34.5798H60.4156V29.0024H64.2103V29.8136H61.4142ZM57.0204 29.7122H55.7222H55.6224V31.5376H57.0204C57.7194 31.5376 58.1188 31.3348 58.1188 30.6249C58.1188 29.915 57.6195 29.7122 57.0204 29.7122ZM54.7236 34.5798V29.0024H57.2201C58.3186 29.0024 59.1174 29.5094 59.1174 30.7263C59.1174 31.7404 58.4184 32.4503 57.32 32.4503H55.7222V34.5798H54.7236ZM49.9304 33.87C50.23 33.87 50.4297 33.5657 50.7293 32.9573L49.0316 28.901H50.1301L51.4283 31.9432L52.8263 28.901H53.8249L51.628 33.3629C51.1287 34.377 50.6294 34.6812 50.0302 34.6812C49.7307 34.6812 49.5309 34.6812 49.3312 34.5798V33.7686C49.3678 33.7686 49.4177 33.7821 49.481 33.7994C49.5907 33.8292 49.7405 33.87 49.9304 33.87ZM46.0359 29.7122H44.7377H44.6378V31.5376H46.0359C46.7349 31.5376 47.1343 31.3348 47.1343 30.6249C47.1343 29.915 46.635 29.7122 46.0359 29.7122ZM43.7391 34.5798V29.0024H46.2356C47.334 29.0024 48.1329 29.5094 48.1329 30.7263C48.1329 31.7404 47.4339 32.4503 46.3354 32.4503H44.7377V34.5798H43.7391ZM38.6463 34.5798H37.5478V29.0024H38.5464V33.2615L40.943 29.0024H42.0415V34.5798H41.0429V30.3207L38.6463 34.5798ZM32.455 34.5798H31.3565L33.154 31.639L31.3565 28.901H32.5549L33.853 30.9291L35.1512 28.901H36.2496L34.4522 31.639L36.4494 34.5798H35.251L33.853 32.4503L32.455 34.5798ZM25.8643 29.7122H24.5661H24.4662V31.5376H25.8643C26.5633 31.5376 26.9627 31.3348 26.9627 30.6249C26.9627 29.915 26.4634 29.7122 25.8643 29.7122ZM23.5675 34.5798V29.0024H26.064C27.1624 29.0024 27.9613 29.5094 27.9613 30.7263C27.9613 31.7404 27.2623 32.4503 26.1639 32.4503H24.5661V34.5798H23.5675ZM17.8755 28.901H22.3692H22.4691V29.8136H20.6716V34.5798H19.673V29.7122H17.8755V28.901ZM15.7785 28.901H16.6772V34.5798H15.6786V32.0446H13.1821V34.5798H12.1835V28.901H13.1821V31.1319H15.7785V28.901ZM6.79113 28.901H10.6857V29.8136H7.68987V31.3348H10.4859V32.146H7.68987V33.7686H10.7855V34.5798H6.79113V28.901ZM4.99367 28.901V33.6671V33.7686H5.49297V35.9995H4.59423V34.5798H0.5V28.901H1.49859V33.6671H3.99508V28.901H4.99367ZM32.8526 22.0054V19.5716H23.2661V14.2983H30.6557V11.7631H23.2661V7.19972H32.5531V4.86733H20.5699V22.0054H32.8526ZM133.712 8.1125L136.408 14.9069H130.916L133.712 8.1125ZM138.355 19.824L138.356 19.825C138.58 20.3828 138.805 20.9406 139.005 21.4984C139.105 21.7012 139.304 22.1069 139.704 22.1069H142L135.01 4.96883H132.514L125.424 22.2083H127.621C128.12 22.2083 128.32 22.1069 128.42 21.7012C128.586 21.2367 128.77 20.7722 128.956 20.3003C129.218 19.6391 129.485 18.9635 129.718 18.2533C129.917 17.8477 130.117 17.6449 130.617 17.6449H136.808C137.307 17.4421 137.507 17.6449 137.707 18.1519C137.906 18.7093 138.131 19.2666 138.355 19.824ZM75.0941 13.6898C75.0941 21.194 81.0856 27.3799 88.5751 27.3799C95.9647 27.3799 102.056 21.194 102.256 13.6898C102.256 12.6757 101.457 11.8644 100.458 11.8644C99.4598 11.8644 98.6609 12.6757 98.6609 13.6898C98.6609 19.2672 94.1672 23.8306 88.675 23.8306C83.1827 23.8306 78.689 19.2672 78.689 13.6898C78.689 12.6757 77.8901 11.8644 76.8915 11.8644C75.893 11.8644 75.0941 12.6757 75.0941 13.6898Z" fill="#0F1F3F"/>
</g>
</g>
<defs>
<clipPath id="clip0_2755_67200">
<rect width="142" height="36" fill="white"/>
</clipPath>
<clipPath id="clip1_2755_67200">
<rect width="142" height="35.9996" fill="white"/>
</clipPath>
</defs>
</svg>
