<svg width="219" height="160" viewBox="0 0 219 160" fill="none" xmlns="http://www.w3.org/2000/svg">
<g clip-path="url(#clip0_2853_127956)">
<g clip-path="url(#clip1_2853_127956)">
<path d="M139.675 32.3907L137.845 36.6207L134.655 26.4707L131.235 33.3107H125.415V33.3507H124.355L122.535 37.5807L119.345 27.4407L115.925 34.2807H110.105V36.0907H117.045L118.965 32.2507L122.275 42.7607L125.545 35.1607H130.335V35.1207H132.355L134.275 31.2807L137.585 41.8007L140.865 34.1907H150.015V32.3907H139.675Z" fill="#0F1F3F"/>
<path d="M143.657 55.7695H125.117V57.5795H143.657V55.7695Z" fill="#0F1F3F"/>
<path d="M150.017 60.5801H125.117V62.3901H150.017V60.5801Z" fill="#0F1F3F"/>
<path d="M138.297 65.9512H125.117V67.7612H138.297V65.9512Z" fill="#0F1F3F"/>
<path d="M120.574 55.0195H111.234V68.1095H120.574V55.0195Z" fill="#49AC32"/>
<path d="M9.34375 11.1797V112.89H151.464C151.464 112.29 151.514 111.69 151.534 111.08H103.154V75.5397H152.554V73.7397H103.154V48.5997H159.764V66.5997L161.564 66.8097V11.1797H9.34375ZM11.1538 111.08V12.9797H101.344V111.08H11.1538ZM103.154 46.7997V12.9797H159.764V46.7997H103.154Z" fill="#49AC32"/>
<path d="M163.066 4.74024H8.48563C7.50429 4.73892 6.53233 4.93124 5.62543 5.30618C4.71853 5.68112 3.89452 6.2313 3.20061 6.92522C2.50669 7.61913 1.95651 8.44314 1.58157 9.35004C1.20663 10.2569 1.01432 11.2289 1.01563 12.2102V125.95C1.01563 129.37 4.35563 132.14 8.48563 132.14H152.806L152.556 120.43H3.23563V12.2102C3.23563 10.8179 3.78876 9.4825 4.77332 8.49793C5.75789 7.51336 7.09324 6.96024 8.48563 6.96024H163.066C164.457 6.96288 165.791 7.51686 166.775 8.50085C167.759 9.48484 168.313 10.8187 168.316 12.2102V67.4402L170.536 67.5802V12.2102C170.536 10.2291 169.749 8.32905 168.348 6.92815C166.947 5.52726 165.047 4.74024 163.066 4.74024ZM72.6156 125.17H98.6956V127.39H72.6156V125.17Z" fill="#49AC32"/>
<path d="M127.405 158.471C127.381 155.385 126.137 152.433 123.945 150.26C121.754 148.086 118.791 146.868 115.705 146.871H112.015V128.871H59.5046V146.741H55.5046C53.9681 146.755 52.4495 147.072 51.0355 147.674C49.6215 148.275 48.3397 149.149 47.2635 150.246C46.1873 151.342 45.3376 152.64 44.763 154.065C44.1883 155.49 43.9001 157.015 43.9146 158.551V159.991L127.445 159.941L127.405 158.471ZM62.3346 132.221H109.215V146.861L62.3346 146.741V132.221Z" fill="#49AC32"/>
<path d="M147.246 88.9904H142.416V84.1504H136.676V88.9904H131.836V94.7304H136.676V99.5604H142.416V94.7304H147.246V88.9904Z" fill="#49AC32"/>
<path d="M116.056 99.0204L107.766 90.7404L110.816 87.6904L116.056 92.9304L122.836 86.1504L125.876 89.2004L116.056 99.0204Z" fill="#49AC32"/>
<path d="M53.9366 48.2906C52.5121 48.2926 51.1191 47.872 49.9337 47.0821C48.7484 46.2921 47.824 45.1683 47.2775 43.8529C46.731 42.5374 46.587 41.0894 46.8637 39.6921C47.1404 38.2948 47.8253 37.0109 48.8319 36.003C49.8384 34.9951 51.1213 34.3083 52.5182 34.0297C53.9152 33.7511 55.3634 33.8931 56.6796 34.4377C57.9958 34.9824 59.1209 35.9052 59.9124 37.0895C60.704 38.2737 61.1266 39.6662 61.1266 41.0906C61.1239 42.9976 60.3659 44.8259 59.0184 46.1753C57.6708 47.5247 55.8436 48.2853 53.9366 48.2906V48.2906ZM53.9366 35.7106C52.8697 35.7086 51.8262 36.0233 50.9383 36.6148C50.0504 37.2063 49.358 38.048 48.9488 39.0333C48.5396 40.0186 48.432 41.1032 48.6397 42.1497C48.8473 43.1962 49.3609 44.1575 50.1153 44.9119C50.8697 45.6663 51.831 46.1799 52.8775 46.3875C53.924 46.5952 55.0086 46.4876 55.9939 46.0784C56.9792 45.6692 57.8209 44.9768 58.4124 44.0889C59.0039 43.201 59.3185 42.1575 59.3166 41.0906C59.306 39.6698 58.7349 38.3106 57.7274 37.3087C56.7198 36.3068 55.3574 35.7432 53.9366 35.7406V35.7106Z" fill="#0F1F3F"/>
<path d="M58.7256 100.41C58.22 100.41 57.7194 100.31 57.2523 100.116C56.7852 99.923 56.3608 99.6394 56.0033 99.2819C55.6458 98.9244 55.3622 98.5 55.1687 98.0329C54.9752 97.5658 54.8756 97.0651 54.8756 96.5595V77.7395H53.2156V96.5595C53.2422 97.081 53.1625 97.6023 52.9813 98.092C52.8 98.5816 52.5211 99.0293 52.1615 99.4078C51.8018 99.7863 51.3689 100.088 50.8892 100.294C50.4094 100.499 49.8927 100.606 49.3706 100.606C48.8485 100.606 48.3319 100.499 47.8521 100.294C47.3723 100.088 46.9394 99.7863 46.5798 99.4078C46.2201 99.0293 45.9412 98.5816 45.76 98.092C45.5788 97.6023 45.499 97.081 45.5256 96.5595L45.6056 62.0595L41.2556 68.5895C40.8378 69.2178 40.2428 69.7079 39.5461 69.9977C38.8494 70.2874 38.0823 70.3637 37.3421 70.217C36.602 70.0702 35.9221 69.707 35.3886 69.1734C34.8551 68.6398 34.4921 67.9597 34.3456 67.2195C34.2454 66.7289 34.2442 66.2231 34.3421 65.732C34.4399 65.2409 34.6349 64.7743 34.9156 64.3595L43.7056 51.1595C44.0092 50.7083 44.4068 50.3281 44.8711 50.0451C45.3354 49.762 45.8555 49.5827 46.3956 49.5195H61.6356C62.1808 49.5836 62.7057 49.7641 63.175 50.0488C63.6443 50.3334 64.0469 50.7157 64.3556 51.1695L73.1556 64.3695C73.4346 64.785 73.6278 65.252 73.724 65.7431C73.8201 66.2342 73.8173 66.7395 73.7156 67.2295C73.6197 67.7216 73.4272 68.1897 73.1491 68.6068C72.871 69.024 72.5129 69.3818 72.0956 69.6595C71.2516 70.2139 70.2232 70.4135 69.2331 70.2151C68.243 70.0167 67.3709 69.4363 66.8056 68.5995L62.5356 62.1795V96.5695C62.5357 97.5828 62.1352 98.555 61.4215 99.2743C60.7079 99.9936 59.7388 100.402 58.7256 100.41ZM51.4056 75.9195H56.6856V96.5595C56.6856 97.1006 56.9005 97.6195 57.2831 98.002C57.6657 98.3846 58.1846 98.5995 58.7256 98.5995C59.2667 98.5995 59.7855 98.3846 60.1681 98.002C60.5507 97.6195 60.7656 97.1006 60.7656 96.5595V56.1895L68.3456 67.5895C68.4917 67.81 68.6801 67.9992 68.8999 68.1464C69.1196 68.2935 69.3664 68.3956 69.6258 68.4468C69.8853 68.4979 70.1523 68.4971 70.4115 68.4444C70.6707 68.3916 70.9168 68.288 71.1356 68.1395C71.5759 67.8454 71.8816 67.3887 71.9856 66.8695C72.0399 66.6122 72.0413 66.3466 71.9897 66.0887C71.9381 65.8309 71.8347 65.5862 71.6856 65.3695V65.3695L62.8956 52.1695C62.7387 51.9405 62.5359 51.7467 62.3001 51.6004C62.0642 51.454 61.8005 51.3584 61.5256 51.3195H46.5256C46.264 51.3662 46.0143 51.4645 45.7911 51.6087C45.5679 51.7529 45.3756 51.9402 45.2256 52.1595L36.4156 65.3595C36.1199 65.8024 36.0122 66.3447 36.1163 66.867C36.2204 67.3893 36.5277 67.8488 36.9706 68.1445C37.4135 68.4402 37.9558 68.5479 38.4781 68.4438C39.0004 68.3397 39.4599 68.0324 39.7556 67.5895L47.4156 56.0895L47.3256 96.5695C47.3256 97.1106 47.5405 97.6295 47.9231 98.012C48.3057 98.3946 48.8246 98.6095 49.3656 98.6095C49.9067 98.6095 50.4255 98.3946 50.8081 98.012C51.1907 97.6295 51.4056 97.1106 51.4056 96.5695V75.9195Z" fill="#0F1F3F"/>
<path d="M81.5169 98.8809H74.5469V100.691H81.5169V98.8809Z" fill="#0F1F3F"/>
<path d="M88.1269 88.251C86.4899 88.2507 84.9181 88.8927 83.7494 90.039C82.5806 91.1852 81.9083 92.7443 81.8769 94.381H66.4169L59.5769 87.541L58.2969 88.821L65.6669 96.191H82.1169C82.4316 97.3117 83.0532 98.3223 83.9114 99.1087C84.7696 99.8952 85.8304 100.426 86.9742 100.642C88.1181 100.858 89.2995 100.751 90.3855 100.331C91.4714 99.9121 92.4186 99.1978 93.1204 98.2691C93.8223 97.3403 94.2508 96.234 94.3576 95.0749C94.4645 93.9157 94.2456 92.7497 93.7254 91.7083C93.2053 90.6669 92.4047 89.7915 91.4137 89.1806C90.4228 88.5698 89.2809 88.2478 88.1169 88.251H88.1269ZM87.6869 97.251L84.6869 94.251L85.9669 92.971L87.7069 94.741L90.5169 92.061L91.7669 93.361L87.6869 97.251Z" fill="#49AC32"/>
<path d="M39.1653 49.4707H32.1953V51.2807H39.1653V49.4707Z" fill="#0F1F3F"/>
<path d="M40.5345 45.24H31.0145C30.7872 43.7064 29.9882 42.3156 28.778 41.3467C27.5677 40.3779 26.0357 39.9027 24.4896 40.0166C22.9434 40.1305 21.4976 40.8251 20.4424 41.9609C19.3872 43.0968 18.8008 44.5897 18.8008 46.14C18.8008 47.6903 19.3872 49.1833 20.4424 50.3191C21.4976 51.4549 22.9434 52.1495 24.4896 52.2634C26.0357 52.3773 27.5677 51.9022 28.778 50.9333C29.9882 49.9644 30.7872 48.5736 31.0145 47.04H39.8045L49.3045 56.54L50.5845 55.27L40.5345 45.24ZM24.4145 48.57L21.4145 45.57L22.6945 44.3L24.4745 46.08L27.2845 43.39L28.5345 44.7L24.4145 48.57Z" fill="#49AC32"/>
<path d="M81.5169 57.7793H74.5469V59.5893H81.5169V57.7793Z" fill="#0F1F3F"/>
<path d="M88.1258 47.8594C86.5133 47.8608 84.964 48.4863 83.8026 49.6048C82.6411 50.7234 81.9578 52.2481 81.8958 53.8594H73.7958L66.4258 61.2294L67.7058 62.5094L74.5458 55.6694H82.0658C82.3488 56.8061 82.9456 57.8405 83.7881 58.6544C84.6307 59.4683 85.685 60.0291 86.8308 60.2727C87.9767 60.5163 89.168 60.433 90.2687 60.0323C91.3695 59.6315 92.3355 58.9295 93.0565 58.0062C93.7776 57.0829 94.2246 55.9755 94.3466 54.8104C94.4687 53.6453 94.2608 52.4694 93.7467 51.4168C93.2327 50.3641 92.4331 49.4771 91.4392 48.857C90.4454 48.2368 89.2972 47.9085 88.1258 47.9094V47.8594ZM87.6858 56.8594L84.6858 53.8594L85.9658 52.5794L87.7458 54.3694L90.5558 51.6794L91.8058 52.9794L87.6858 56.8594Z" fill="#49AC32"/>
<path d="M81.5169 36.9707H74.5469V38.7807H81.5169V36.9707Z" fill="#0F1F3F"/>
<path d="M88.1269 27.8203C86.5466 27.8193 85.0249 28.4188 83.87 29.4975C82.7152 30.5763 82.0134 32.0536 81.9069 33.6303H62.1669L54.7969 41.0003L56.0769 42.2803L62.9169 35.4403H82.0169C82.2732 36.5919 82.8497 37.6477 83.68 38.4859C84.5104 39.3241 85.5606 39.9105 86.7098 40.1777C87.8589 40.4449 89.0602 40.3818 90.1751 39.9959C91.29 39.61 92.2732 38.9168 93.0112 37.9964C93.7493 37.0759 94.2122 35.9656 94.3466 34.7935C94.481 33.6214 94.2815 32.4351 93.7709 31.3715C93.2604 30.3079 92.4597 29.4101 91.4611 28.7818C90.4625 28.1535 89.3067 27.8202 88.1269 27.8203ZM87.6869 36.8203L84.6869 33.8203L85.9669 32.5403L87.7469 34.3203L90.5569 31.6403L91.8069 32.9403L87.6869 36.8203Z" fill="#49AC32"/>
<path d="M54.4437 68.4109L53.1637 67.1309L41.2537 79.0409H31.0137C30.7853 77.5079 29.9855 76.1181 28.775 75.1502C27.5645 74.1823 26.0327 73.7081 24.487 73.8226C22.9414 73.9372 21.4962 74.632 20.4416 75.7677C19.3869 76.9034 18.8008 78.396 18.8008 79.9459C18.8008 81.4957 19.3869 82.9883 20.4416 84.124C21.4962 85.2597 22.9414 85.9545 24.487 86.0691C26.0327 86.1836 27.5645 85.7094 28.775 84.7415C29.9855 83.7737 30.7853 82.3838 31.0137 80.8509H42.0137L54.4437 68.4109ZM24.4437 82.3509L21.4437 79.3509L22.7237 78.0709L24.5037 79.8609L27.3137 77.1709L28.5637 78.4709L24.4437 82.3509Z" fill="#49AC32"/>
<path d="M41.857 82.4805H31.457V84.2905H41.857V82.4805Z" fill="#0F1F3F"/>
<path d="M205.074 89.1406H164.984V91.3606H205.074V89.1406Z" fill="#0F1F3F"/>
<path d="M205.074 104.1H164.984V106.32H205.074V104.1Z" fill="#0F1F3F"/>
<path d="M205.074 97.2598H164.984V99.4798H205.074V97.2598Z" fill="#0F1F3F"/>
<path d="M205.074 112.221H164.984V114.441H205.074V112.221Z" fill="#0F1F3F"/>
<path d="M190.855 142.87L178.055 130.07L182.765 125.36L190.855 133.45L201.325 122.98L206.025 127.69L190.855 142.87Z" fill="#49AC32"/>
<path d="M215.374 66.3711H205.684C205.803 66.7308 205.877 67.1035 205.904 67.4811H215.374C215.671 67.4811 215.964 67.5396 216.238 67.6533C216.511 67.767 216.76 67.9336 216.969 68.1436C217.178 68.3536 217.343 68.6028 217.456 68.877C217.568 69.1511 217.626 69.4448 217.624 69.7411V156.661C217.624 157.258 217.387 157.83 216.965 158.252C216.543 158.674 215.971 158.911 215.374 158.911H154.844C154.248 158.911 153.675 158.674 153.253 158.252C152.831 157.83 152.594 157.258 152.594 156.661V69.7411C152.594 69.1444 152.831 68.5721 153.253 68.1501C153.675 67.7281 154.248 67.4911 154.844 67.4911H164.314C164.342 67.1135 164.416 66.7408 164.534 66.3811H154.834C153.946 66.3864 153.095 66.7424 152.468 67.3716C151.84 68.0009 151.487 68.8525 151.484 69.7411V156.661C151.487 157.549 151.841 158.399 152.468 159.027C153.096 159.655 153.947 160.008 154.834 160.011H215.374C216.264 160.011 217.117 159.658 217.747 159.031C218.377 158.403 218.732 157.55 218.734 156.661V69.7411C218.734 68.849 218.381 67.9934 217.751 67.3617C217.121 66.73 216.266 66.3737 215.374 66.3711V66.3711Z" fill="#49AC32"/>
<path d="M205.934 68.5912H215.374C215.525 68.5912 215.674 68.621 215.813 68.6789C215.952 68.7368 216.078 68.8217 216.184 68.9286C216.29 69.0355 216.374 69.1624 216.43 69.3018C216.487 69.4413 216.515 69.5906 216.514 69.7412V156.661C216.514 156.964 216.394 157.253 216.18 157.467C215.966 157.681 215.676 157.801 215.374 157.801H154.834C154.534 157.799 154.246 157.677 154.034 157.464C153.823 157.25 153.704 156.962 153.704 156.661V69.7412C153.704 69.4406 153.823 69.1521 154.034 68.9386C154.246 68.7251 154.534 68.6038 154.834 68.6012H164.284V67.7412C164.279 67.6446 164.279 67.5478 164.284 67.4512H154.814C154.518 67.4551 154.225 67.5175 153.953 67.6348C153.681 67.7521 153.435 67.9221 153.228 68.1349C153.022 68.3477 152.86 68.5991 152.751 68.8748C152.642 69.1504 152.589 69.4449 152.594 69.7412V156.661C152.594 157.258 152.831 157.83 153.253 158.252C153.675 158.674 154.247 158.911 154.844 158.911H215.374C215.971 158.911 216.543 158.674 216.965 158.252C217.387 157.83 217.624 157.258 217.624 156.661V69.7412C217.624 69.1444 217.387 68.5721 216.965 68.1502C216.543 67.7282 215.971 67.4912 215.374 67.4912H205.904C205.904 67.5912 205.904 67.6812 205.904 67.7812L205.934 68.5912Z" fill="#49AC32"/>
<path d="M211.787 74.22V148.84H158.927V74.22H164.287V72H156.707V151.06H214.007V72H205.937V74.22H211.787Z" fill="#49AC32"/>
<path d="M205.906 67.4801C205.878 67.1025 205.804 66.7297 205.686 66.3701C205.394 65.4643 204.823 64.6743 204.054 64.1137C203.285 63.5531 202.358 63.2507 201.406 63.2501H192.856V63.0701C192.854 61.8783 192.378 60.7363 191.535 59.8946C190.691 59.0528 189.548 58.5801 188.356 58.5801H181.866C180.674 58.5801 179.531 59.0528 178.688 59.8946C177.844 60.7363 177.369 61.8783 177.366 63.0701V63.2501H168.816C167.865 63.2507 166.938 63.5531 166.169 64.1137C165.4 64.6743 164.828 65.4643 164.536 66.3701C164.418 66.7297 164.344 67.1025 164.316 67.4801C164.311 67.5767 164.311 67.6735 164.316 67.7701V75.9201H205.966V67.7401C205.936 67.6701 205.906 67.5801 205.906 67.4801ZM194.356 68.5901V69.9501H176.536V67.7401H194.356V68.5901Z" fill="#49AC32"/>
</g>
</g>
<defs>
<clipPath id="clip0_2853_127956">
<rect width="218" height="160" fill="white" transform="translate(0.984375)"/>
</clipPath>
<clipPath id="clip1_2853_127956">
<rect width="217.72" height="155.26" fill="white" transform="translate(1.01562 4.74023)"/>
</clipPath>
</defs>
</svg>
