<svg width="265" height="163" viewBox="0 0 265 163" fill="none" xmlns="http://www.w3.org/2000/svg">
<g clip-path="url(#clip0_2853_127954)">
<path fill-rule="evenodd" clip-rule="evenodd" d="M126.043 21.5293C125.826 21.3104 125.567 21.1367 125.282 21.0181C124.997 20.8996 124.692 20.8385 124.383 20.8385C124.075 20.8385 123.769 20.8996 123.484 21.0181C123.199 21.1367 122.941 21.3104 122.723 21.5293L121.773 22.4793C115.571 17.0258 107.592 14.0245 99.3333 14.0393C97.9121 14.0502 96.4928 14.1471 95.0833 14.3293C94.7733 13.7091 94.2667 13.2089 93.6427 12.9068C93.0186 12.6047 92.312 12.5177 91.6333 12.6593C86.5604 13.7658 81.7855 15.952 77.6333 19.0693C76.7561 18.7593 75.8188 18.6576 74.8955 18.7721C73.9722 18.8867 73.0882 19.2143 72.3133 19.7293L59.8333 8.0893V0.529297H57.6133V9.0593L70.7033 21.2693C70.1756 22.0517 69.8399 22.9476 69.7234 23.8841C69.607 24.8207 69.7132 25.7715 70.0333 26.6593C66.9772 30.7833 64.8362 35.5119 63.7533 40.5293C63.6117 41.208 63.6987 41.9146 64.0008 42.5387C64.3029 43.1628 64.8031 43.6693 65.4233 43.9793C65.2407 45.3888 65.1439 46.8081 65.1333 48.2293C65.1185 56.4878 68.1198 64.4675 73.5733 70.6693L72.2633 71.9793C71.823 72.4182 71.5752 73.0141 71.5742 73.6358C71.5733 74.2574 71.8194 74.854 72.2583 75.2943C72.6972 75.7346 73.2931 75.9824 73.9147 75.9834C74.5364 75.9843 75.133 75.7382 75.5733 75.2993L82.4333 68.4393L83.8733 69.8793L84.9833 68.7193L87.1133 70.8593C87.4145 71.1741 87.7761 71.4249 88.1764 71.5967C88.5767 71.7685 89.0076 71.8578 89.4433 71.8593C89.8786 71.8556 90.3088 71.7652 90.7088 71.5935C91.1088 71.4219 91.4707 71.1723 91.7733 70.8593L121.253 41.3693C121.569 41.0685 121.82 40.7069 121.991 40.3065C122.163 39.9061 122.252 39.475 122.253 39.0393C122.25 38.6039 122.16 38.1735 121.988 37.7734C121.817 37.3733 121.567 37.0115 121.253 36.7093L119.193 34.5293L120.633 33.0893L119.193 31.6493L126.043 24.7893C126.47 24.3538 126.708 23.7687 126.708 23.1593C126.708 22.5499 126.47 21.9648 126.043 21.5293ZM72.3633 22.8193C72.5233 22.5158 72.7253 22.2364 72.9633 21.9893C73.5819 21.3905 74.3861 21.0202 75.2433 20.9393H75.6033C76.3977 20.9393 77.1703 21.1992 77.8033 21.6793C77.9574 21.7782 78.1015 21.8921 78.2333 22.0193C78.6335 22.4291 78.9345 22.9251 79.1133 23.4693C79.2493 23.8514 79.3203 24.2537 79.3233 24.6593C79.3166 25.6445 78.9255 26.5882 78.2333 27.2893C77.8643 27.663 77.4168 27.9499 76.9233 28.1293C76.2462 28.3874 75.5091 28.4455 74.8 28.2966C74.0908 28.1476 73.4394 27.798 72.9233 27.2893C72.8055 27.1626 72.6953 27.029 72.5933 26.8893C72.1687 26.319 71.9174 25.6384 71.8696 24.929C71.8217 24.2197 71.9792 23.5115 72.3233 22.8893L72.3633 22.8193ZM82.3633 58.9893C80.4625 55.1351 79.8166 50.7824 80.5162 46.5424C81.2158 42.3023 83.2258 38.3878 86.264 35.3486C89.3021 32.3093 93.2159 30.2979 97.4557 29.5968C101.695 28.8956 106.048 29.54 109.903 31.4393L82.3633 58.9893ZM119.733 38.2693C119.932 38.4762 120.043 38.7522 120.043 39.0393C120.044 39.1801 120.017 39.3198 119.964 39.4502C119.911 39.5806 119.832 39.6993 119.733 39.7993L90.2333 69.2993C90.1332 69.3984 90.0146 69.4769 89.8842 69.5301C89.7538 69.5833 89.6141 69.6102 89.4733 69.6093C89.3324 69.6102 89.1928 69.5833 89.0624 69.5301C88.932 69.4769 88.8133 69.3984 88.7133 69.2993L86.5833 67.1493L117.583 36.1493L119.733 38.2693ZM115.863 28.3593L114.423 26.9193L111.563 29.7793C107.247 27.4838 102.309 26.6348 97.4739 27.3574C92.6393 28.08 88.1645 30.336 84.7084 33.7932C81.2524 37.2503 78.9979 41.7258 78.2768 46.5607C77.5558 51.3956 78.4064 56.3342 80.7033 60.6493L77.7033 63.6493L79.1433 65.0893L75.1433 69.0893C72.1865 65.7115 69.9867 61.7402 68.6913 57.4421C67.396 53.1439 67.0353 48.6184 67.6333 44.1693C68.1937 44.026 68.703 43.7291 69.104 43.3122C69.505 42.8953 69.7818 42.3749 69.9033 41.8093C70.7945 37.7372 72.5247 33.8955 74.9833 30.5293C75.1855 30.5597 75.3891 30.5797 75.5933 30.5893C76.3735 30.5903 77.1462 30.4371 77.867 30.1385C78.5877 29.8399 79.2424 29.4018 79.7933 28.8493C80.3458 28.2984 80.7839 27.6438 81.0825 26.923C81.3811 26.2022 81.5343 25.4295 81.5333 24.6493C81.5333 24.4293 81.5333 24.2193 81.4733 24.0093C84.8924 21.4661 88.8174 19.6861 92.9833 18.7893C93.5416 18.6626 94.0544 18.3848 94.4653 17.9862C94.8763 17.5875 95.1697 17.0835 95.3133 16.5293C96.64 16.3595 97.9758 16.2694 99.3133 16.2593C106.984 16.2438 114.399 19.0117 120.183 24.0493L115.863 28.3593ZM230.145 23.2487V32.6191H205.445V61.3791H253.985V32.6191H232.365V22.1887L206.245 1.13867L204.855 2.87867L230.145 23.2487ZM251.765 59.1591H207.675L207.665 34.8391H251.765V59.1591ZM123.238 69.4434L124.87 67.9376L133.748 77.556L132.117 79.0618L123.238 69.4434ZM113.723 76.2316L111.707 77.1621L118.367 91.589L120.383 90.6585L113.723 76.2316ZM99.4102 80.4336L101.629 80.3735L102 94.0585L99.7805 94.1186L99.4102 80.4336ZM192.985 159.008C192.982 156.8 192.104 154.683 190.542 153.121C189.101 151.68 187.188 150.821 185.166 150.695V112.98H212.395L214.194 109.095L218.054 110.519L252.164 76.4086L250.564 72.0586L247.114 70.7886L240.984 68.0586L227.334 81.8186L228.984 86.4286L224.184 84.3086L209.984 98.7086L211.301 102.321L209.905 98.7002H185.386V77.4492H180.757C180.557 75.9055 179.852 74.4612 178.739 73.3494C177.914 72.5259 176.907 71.9266 175.813 71.5908V67.2588H197.986V28.7988H132.496V67.2588H155.293V71.3689C153.831 71.6037 152.47 72.2929 151.41 73.353C150.298 74.4643 149.594 75.9072 149.395 77.4492H144.336V98.6602H119.585L114.665 108.79H114.624L114.614 108.77H114.494L104.804 104.77L90.3344 119.47L92.3344 125.07L92.2444 125.16L86.9944 122.65L73.9844 135.82L77.7544 145.71V145.63L82.0644 147.22L116.383 112.98H135.313L133.085 114.718L136.645 117.278L132.985 120.028L136.545 122.598L132.985 125.348L136.985 128.248V150.678H122.385C120.176 150.681 118.059 151.559 116.497 153.121C114.936 154.683 114.057 156.8 114.055 159.008V160.118H120.135C120.358 160.943 120.847 161.672 121.525 162.191C122.204 162.711 123.035 162.992 123.89 162.992C124.744 162.992 125.575 162.711 126.254 162.191C126.933 161.672 127.421 160.943 127.645 160.118H129.155C129.378 160.943 129.867 161.672 130.545 162.191C131.224 162.711 132.055 162.992 132.91 162.992C133.764 162.992 134.595 162.711 135.274 162.191C135.953 161.672 136.441 160.943 136.665 160.118H171.425C171.648 160.943 172.137 161.672 172.815 162.191C173.494 162.711 174.325 162.992 175.18 162.992C176.034 162.992 176.865 162.711 177.544 162.191C178.223 161.672 178.711 160.943 178.935 160.118H180.455C180.678 160.943 181.167 161.672 181.845 162.191C182.524 162.711 183.355 162.992 184.21 162.992C185.064 162.992 185.895 162.711 186.574 162.191C187.253 161.672 187.741 160.943 187.965 160.118H192.965L192.985 159.008ZM175.856 112.98L178.085 114.718L174.535 117.278L178.085 120.028L174.535 122.598L178.085 125.348L173.815 128.418V150.678H183.406V112.98H175.856ZM146.556 98.6602H165.265L167.345 104.05L169.825 98.7002H183.176V90.6302H146.556V98.6602ZM139.295 129.008H171.625V150.478H139.265L139.295 129.008ZM138.835 113.008H172.325L174.415 114.618L172.215 116.208H138.925L136.725 114.618L138.835 113.008ZM138.705 118.428H172.455L174.455 119.938L172.605 121.268H138.605L136.765 119.938L138.705 118.428ZM138.985 123.528H172.075L174.355 125.288L172.355 126.758H138.765L136.765 125.288L138.985 123.528ZM116.355 157.908C116.616 156.506 117.358 155.24 118.453 154.327C119.549 153.414 120.929 152.912 122.355 152.908H184.595C186.02 152.914 187.399 153.417 188.494 154.329C189.589 155.242 190.332 156.507 190.595 157.908H116.355ZM150.244 133.17H144.344V140.24H150.244V133.17ZM89.1021 80.794L85.0234 93.3691L87.1351 94.0541L91.2138 81.4789L89.1021 80.794ZM146.556 88.4102H183.176V79.6692H146.556V88.4102ZM178.466 77.2393H151.676C151.937 76.1817 152.545 75.2419 153.402 74.5695C154.259 73.8972 155.317 73.531 156.406 73.5293H173.736C174.826 73.5293 175.884 73.8948 176.742 74.5674C177.599 75.24 178.206 76.1808 178.466 77.2393ZM15.1641 162.949V68.1094H20.1545V60.7588L5.45453 52.1888C5.02674 52.5369 4.49585 52.7338 3.94453 52.7488C3.55673 52.7718 3.16832 52.7152 2.80317 52.5827C2.43801 52.4501 2.10381 52.2443 1.8211 51.9778C1.53839 51.7114 1.31313 51.3899 1.15917 51.0333C1.0052 50.6766 0.925781 50.2922 0.925781 49.9038C0.925781 49.5153 1.0052 49.1309 1.15917 48.7742C1.31313 48.4176 1.53839 48.0961 1.8211 47.8297C2.10381 47.5633 2.43801 47.3574 2.80317 47.2248C3.16832 47.0923 3.55673 47.0357 3.94453 47.0588C4.0456 47.073 4.14577 47.093 4.24453 47.1188L19.2445 24.5288V12.4688H56.7345V34.5288H19.2445V28.3988L5.98453 48.1287C6.40518 48.6059 6.64883 49.2132 6.67453 49.8488C6.65752 49.9838 6.63078 50.1175 6.59453 50.2488L20.1045 58.1388V52.6788H58.5345V68.1094H64.0841V162.949H15.1641ZM56.3045 68.1094V54.8787H22.3045V68.1094H56.3045ZM26.3241 160.599H52.1641V151.759H47.3741V155.189C47.3741 155.72 47.1633 156.229 46.7883 156.604C46.4132 156.979 45.9045 157.189 45.3741 157.189H33.3741C32.8436 157.189 32.3349 156.979 31.9598 156.604C31.5848 156.229 31.3741 155.72 31.3741 155.189V151.759H26.3241V160.599ZM54.3941 160.599H61.7141L61.7241 144.439H17.5241V160.589H24.1141V149.529H54.3941V160.599ZM26.3141 132.969V141.909H52.1741V132.969H26.3141ZM54.3941 142.069H61.7141L61.7241 125.929H17.5241V142.069H24.1141V130.749H54.3941V142.069ZM26.3241 114.589V123.529H52.1741V114.589H26.3241ZM54.3941 123.529H61.7241V107.419H17.5241V123.529H24.1141V112.399H54.3941V123.529ZM45.3641 101.529H33.3641V101.589C32.8371 101.587 32.3325 101.376 31.9598 101.004C31.5872 100.631 31.3767 100.126 31.3741 99.5994V96.1694H26.3241V105.059H52.1541V96.1694H47.3641V99.5294C47.3641 100.06 47.1533 100.569 46.7783 100.944C46.4032 101.319 45.8945 101.529 45.3641 101.529ZM54.3941 104.999H61.7241V88.9194H17.5241V105.059H24.1141V93.9494H54.3941V104.999ZM45.3641 83.1694H33.3641C32.8371 83.1667 32.3325 82.9562 31.9598 82.5836C31.5872 82.211 31.3767 81.7063 31.3741 81.1794V77.7294H26.3241V86.5294H52.1541V77.7294H47.3641V81.1694C47.3641 81.6998 47.1533 82.2085 46.7783 82.5836C46.4032 82.9587 45.8945 83.1694 45.3641 83.1694ZM54.3941 86.5294H61.7241V70.4694H17.5241V86.5294H24.1141V75.5294H54.3941V86.5294ZM44.9442 134.91H33.5742V137.16H44.9442V134.91ZM33.5742 116.58H44.9442V118.83H33.5742V116.58ZM138.436 37.729C139.27 37.729 139.946 37.0529 139.946 36.219C139.946 35.385 139.27 34.709 138.436 34.709C137.602 34.709 136.926 35.385 136.926 36.219C136.926 37.0529 137.602 37.729 138.436 37.729ZM139.946 41.3186C139.946 42.1525 139.27 42.8286 138.436 42.8286C137.602 42.8286 136.926 42.1525 136.926 41.3186C136.926 40.4846 137.602 39.8086 138.436 39.8086C139.27 39.8086 139.946 40.4846 139.946 41.3186ZM192.053 37.729C192.887 37.729 193.563 37.0529 193.563 36.219C193.563 35.385 192.887 34.709 192.053 34.709C191.219 34.709 190.543 35.385 190.543 36.219C190.543 37.0529 191.219 37.729 192.053 37.729ZM193.563 41.3186C193.563 42.1525 192.887 42.8286 192.053 42.8286C191.219 42.8286 190.543 42.1525 190.543 41.3186C190.543 40.4846 191.219 39.8086 192.053 39.8086C192.887 39.8086 193.563 40.4846 193.563 41.3186ZM134.746 65.0388H195.746V31.0388H134.746V65.0388ZM173.603 71.1399H157.513V67.3899H173.603V71.1399ZM155.715 49.88L153.365 42.42L151.965 45.22H147.055V44.03H151.225L153.615 39.25L155.885 46.47L157.225 43.37H164.535V44.56H158.005L155.715 49.88ZM150.644 54.7359C150.866 54.406 150.984 54.0174 150.984 53.6198C150.991 53.3595 150.946 53.1006 150.851 52.8582C150.756 52.6158 150.613 52.3949 150.431 52.2085C150.249 52.0221 150.032 51.8739 149.792 51.7728C149.552 51.6717 149.295 51.6197 149.034 51.6198C148.637 51.6098 148.245 51.7186 147.91 51.9323C147.575 52.1459 147.31 52.4547 147.151 52.8191C146.992 53.1836 146.945 53.5872 147.017 53.9784C147.088 54.3696 147.275 54.7306 147.552 55.0153C147.83 55.3001 148.186 55.4956 148.575 55.5769C148.965 55.6582 149.369 55.6216 149.738 55.4718C150.106 55.322 150.421 55.0658 150.644 54.7359ZM156.254 53.6191C156.254 54.0147 156.137 54.4014 155.917 54.7303C155.697 55.0592 155.385 55.3155 155.019 55.4669C154.654 55.6183 154.252 55.6579 153.864 55.5807C153.476 55.5035 153.119 55.3131 152.84 55.0334C152.56 54.7537 152.37 54.3973 152.292 54.0093C152.215 53.6214 152.255 53.2192 152.406 52.8538C152.558 52.4883 152.814 52.176 153.143 51.9562C153.472 51.7364 153.858 51.6191 154.254 51.6191C154.784 51.6191 155.293 51.8299 155.668 52.2049C156.043 52.58 156.254 53.0887 156.254 53.6191ZM157.863 53.1992H164.443V54.3892H157.863V53.1992ZM253.546 131.898L253.616 131.818H253.486L252.726 130.818C251.749 129.572 250.501 128.564 249.077 127.871C247.653 127.178 246.089 126.818 244.506 126.818H211.866C210.283 126.817 208.721 127.177 207.299 127.87C205.876 128.563 204.63 129.571 203.656 130.818L202.896 131.818H202.766L202.826 131.898L208.136 138.538H215.076V151.538C213.377 152.06 211.89 153.111 210.83 154.538C209.771 155.964 209.195 157.692 209.186 159.468V160.578H213.616C213.916 161.28 214.416 161.878 215.053 162.299C215.691 162.719 216.437 162.943 217.201 162.943C217.964 162.943 218.711 162.719 219.348 162.299C219.985 161.878 220.485 161.28 220.786 160.578H235.436C235.736 161.28 236.236 161.878 236.873 162.299C237.511 162.719 238.257 162.943 239.021 162.943C239.784 162.943 240.531 162.719 241.168 162.299C241.805 161.878 242.305 161.28 242.606 160.578H247.166V159.528C247.163 157.88 246.673 156.269 245.756 154.899C244.84 153.528 243.538 152.46 242.016 151.828V138.528H248.216L253.526 131.888L253.546 131.898ZM244.856 158.418H211.516C211.778 157.017 212.521 155.752 213.616 154.839C214.711 153.927 216.09 153.424 217.516 153.418H238.836C240.265 153.418 241.65 153.917 242.749 154.83C243.849 155.744 244.594 157.013 244.856 158.418ZM238.846 151.198H217.526C217.231 151.214 216.937 151.244 216.646 151.288V138.648H240.466V151.358C239.932 151.254 239.389 151.2 238.846 151.198ZM247.176 136.328H209.176L207.336 134.038H248.986L247.176 136.328ZM208.485 100.77H171.155L169.385 104.59H209.955L208.485 100.77ZM163.835 100.77H120.925L119.065 104.61H165.315L163.835 100.77ZM241.384 70.2286L244.884 71.8086L230.764 85.9286L229.444 82.2786L241.384 70.2286ZM224.654 86.5886L228.424 88.2686L213.584 103.099L212.144 99.1886L224.654 86.5886ZM92.5044 119.94L93.8344 123.59L93.8744 123.55L108.874 108.55L105.244 106.94L92.5044 119.94ZM90.8644 126.58L87.4344 124.93L76.1944 136.23L77.6044 139.74H77.7044L90.8644 126.58ZM40.5545 23.9189L36.9945 19.3789L33.9845 22.7789H29.1445V24.9989H35.1145L36.8245 23.4289L40.4745 28.1189L43.7045 23.7989H47.3045V21.5789H42.5045L40.5545 23.9189ZM54.5245 14.6888H21.4645V32.2988H54.5245V14.6888ZM3.82453 51.4288C3.95801 51.4234 4.08973 51.3964 4.21453 51.3488C4.51003 51.2684 4.76839 51.0877 4.94535 50.8378C5.12231 50.5879 5.20686 50.2842 5.18453 49.9788C5.1796 49.8345 5.14913 49.6923 5.09453 49.5588C5.07012 49.4642 5.03312 49.3734 4.98453 49.2887C4.89003 49.0601 4.72879 48.8653 4.52185 48.7297C4.3149 48.5941 4.07188 48.5241 3.82453 48.5288C3.4907 48.5386 3.17016 48.6618 2.91569 48.8781C2.66123 49.0944 2.488 49.3909 2.42453 49.7188C2.40305 49.8044 2.38636 49.8912 2.37453 49.9788C2.37453 50.3633 2.52729 50.7321 2.79922 51.0041C3.07115 51.276 3.43996 51.4288 3.82453 51.4288ZM51.5259 58.3492C51.3154 58.5606 51.1722 58.8297 51.1145 59.1224C51.0567 59.4151 51.087 59.7184 51.2015 59.9939C51.316 60.2695 51.5095 60.5049 51.7577 60.6706C52.0059 60.8362 52.2976 60.9246 52.5959 60.9246C52.8943 60.9246 53.186 60.8362 53.4342 60.6706C53.6824 60.5049 53.8759 60.2695 53.9904 59.9939C54.1049 59.7184 54.1351 59.4151 54.0774 59.1224C54.0196 58.8297 53.8765 58.5606 53.6659 58.3492C53.5263 58.207 53.3598 58.0942 53.1761 58.0171C52.9924 57.9401 52.7952 57.9004 52.5959 57.9004C52.3967 57.9004 52.1995 57.9401 52.0158 58.0171C51.8321 58.0942 51.6656 58.207 51.5259 58.3492ZM51.1145 63.3018C51.1722 63.009 51.3154 62.74 51.5259 62.5285C51.6662 62.3876 51.833 62.2758 52.0166 62.1995C52.2002 62.1233 52.3971 62.084 52.5959 62.084C52.7948 62.084 52.9917 62.1233 53.1753 62.1995C53.3589 62.2758 53.5256 62.3876 53.6659 62.5285C53.8765 62.74 54.0196 63.009 54.0774 63.3018C54.1351 63.5945 54.1049 63.8978 53.9904 64.1733C53.8759 64.4489 53.6824 64.6843 53.4342 64.85C53.186 65.0156 52.8943 65.104 52.5959 65.104C52.2976 65.104 52.0059 65.0156 51.7577 64.85C51.5095 64.6843 51.316 64.4489 51.2015 64.1733C51.087 63.8978 51.0567 63.5945 51.1145 63.3018ZM238.354 42.1995C240.374 42.2595 240.964 44.5895 241.524 46.8695C242.124 49.2795 242.654 50.9895 243.894 50.9895V52.5995C241.304 52.5995 240.564 49.6295 239.974 47.2495L239.929 47.0706C239.54 45.5192 239.094 43.7417 238.324 43.7995C237.527 43.8592 237.077 45.6466 236.678 47.2324L236.674 47.2495C236.094 49.5895 235.354 52.5395 232.824 52.5895H232.764C230.226 52.5395 229.495 49.6152 228.905 47.2564L228.904 47.2495C228.889 47.1902 228.874 47.1305 228.859 47.0705C228.47 45.5191 228.024 43.7417 227.254 43.7995C226.454 43.8595 226.004 45.6595 225.614 47.2495L225.589 47.3447C224.994 49.6797 224.249 52.5995 221.694 52.5995C219.104 52.5995 218.364 49.6295 217.774 47.2495C217.374 45.6395 216.914 43.7895 216.094 43.7895V42.1895C218.164 42.1895 218.734 44.4595 219.334 46.8695C219.934 49.2795 220.454 50.9895 221.694 50.9895C222.934 50.9895 223.484 49.1495 224.054 46.8695C224.624 44.5895 225.224 42.2595 227.224 42.1995H227.284C229.304 42.2595 229.874 44.4795 230.464 46.8695C231.054 49.2595 231.584 51.0195 232.794 50.9895C234.004 50.9595 234.554 49.1495 235.124 46.8695C235.694 44.5895 236.294 42.2595 238.294 42.1995H238.354Z" fill="#49AC32"/>
<path fill-rule="evenodd" clip-rule="evenodd" d="M53.1328 31.1889H24.1328V16.1289H53.1328V31.1889ZM26.3728 28.9689H50.9128V18.3489H26.3728V28.9689ZM142.383 62.5286V34.0586H188.063V62.5286H142.383ZM144.603 60.3186H185.843V36.3186H144.603V60.3186ZM249.305 57.3687H210.395V36.6387H249.305V57.3687ZM212.615 55.1587H247.085V38.8587H212.615V55.1587ZM119.825 42.0993L121.395 40.5293C122.335 41.5116 122.969 42.7466 123.219 44.0834C123.47 45.4201 123.325 46.8008 122.803 48.0567C122.281 49.3126 121.405 50.3893 120.281 51.1551C119.157 51.921 117.834 52.3429 116.475 52.3693C115.563 52.3786 114.659 52.2065 113.814 51.8632C112.969 51.5198 112.201 51.012 111.555 50.3693L113.125 48.7993C113.563 49.2422 114.085 49.594 114.66 49.8343C115.235 50.0746 115.852 50.1986 116.475 50.1993C117.412 50.1959 118.327 49.9154 119.105 49.3932C119.882 48.8711 120.489 48.1305 120.847 47.2647C121.205 46.3989 121.299 45.4465 121.117 44.5274C120.935 43.6083 120.485 42.7635 119.825 42.0993ZM101.171 64.4346C100.989 63.5156 100.538 62.6713 99.8755 62.0084L101.435 60.3984C102.389 61.3784 103.034 62.616 103.292 63.9585C103.55 65.301 103.409 66.6896 102.887 67.953C102.365 69.2164 101.484 70.2993 100.354 71.0679C99.2232 71.8366 97.8924 72.2574 96.5255 72.2784C95.6139 72.2866 94.7098 72.1141 93.8653 71.7708C93.0209 71.4275 92.2528 70.9203 91.6055 70.2784L93.1755 68.7084C93.6143 69.15 94.1363 69.5002 94.7113 69.7388C95.2863 69.9774 95.9029 70.0996 96.5255 70.0984C97.4625 70.0978 98.3782 69.8194 99.1571 69.2985C99.936 68.7777 100.543 68.0376 100.901 67.1719C101.26 66.3062 101.354 65.3537 101.171 64.4346ZM111.484 58.3488L112.484 57.3488C112.904 56.9239 113.139 56.3508 113.139 55.7537C113.139 55.1567 112.904 54.5836 112.484 54.1588L109.984 51.7188L108.404 53.2788L110.854 55.8188L106.704 59.9188L104.234 57.4388L102.664 59.0088L105.144 61.5288C105.353 61.7403 105.603 61.9084 105.877 62.0234C106.152 62.1383 106.446 62.1979 106.744 62.1987C107.041 62.1998 107.335 62.142 107.61 62.0288C107.885 61.9155 108.134 61.7489 108.344 61.5387L109.134 60.7488L110.824 62.4388C110.978 62.5931 111.162 62.7155 111.363 62.799C111.565 62.8825 111.781 62.9255 111.999 62.9255C112.217 62.9255 112.433 62.8825 112.635 62.799C112.837 62.7155 113.02 62.5931 113.174 62.4388C113.328 62.2844 113.451 62.1013 113.534 61.8997C113.618 61.6981 113.661 61.482 113.661 61.2638C113.661 61.0455 113.618 60.8295 113.534 60.6278C113.451 60.4262 113.328 60.2431 113.174 60.0888L111.484 58.3488ZM132.485 143.92C134.221 145.659 136.577 146.636 139.033 146.639C141.489 146.634 143.841 145.655 145.575 143.917C147.31 142.179 148.283 139.824 148.283 137.369V134.889H146.073V137.369C146.073 139.237 145.331 141.029 144.01 142.351C142.689 143.672 140.897 144.414 139.028 144.414C137.16 144.414 135.368 143.672 134.047 142.351C132.726 141.029 131.983 139.237 131.983 137.369V106.709H129.773V137.369C129.773 139.826 130.749 142.182 132.485 143.92ZM174.983 41.9094C175.401 41.9114 175.81 41.7891 176.159 41.558C176.507 41.3269 176.779 40.9975 176.94 40.6115C177.101 40.2256 177.144 39.8005 177.063 39.3903C176.982 38.98 176.781 38.6031 176.485 38.3075C176.189 38.0118 175.812 37.8106 175.402 37.7295C174.992 37.6484 174.567 37.691 174.181 37.852C173.795 38.0129 173.465 38.2849 173.234 38.6334C173.003 38.9819 172.881 39.3913 172.883 39.8094C172.883 40.3664 173.104 40.9005 173.498 41.2944C173.892 41.6882 174.426 41.9094 174.983 41.9094ZM172.476 45.4391L170.476 48.4391V48.4591C170.311 48.6131 170.1 48.7069 169.875 48.7254C169.65 48.7439 169.426 48.6859 169.238 48.5608C169.051 48.4358 168.911 48.251 168.841 48.0365C168.772 47.8219 168.777 47.5903 168.856 47.3791L171.796 42.9591C171.876 42.8449 171.978 42.7486 172.097 42.6763C172.216 42.604 172.348 42.5572 172.486 42.5391H177.646C177.779 42.5611 177.906 42.6097 178.019 42.6818C178.132 42.754 178.23 42.8483 178.306 42.9591L181.256 47.3791C181.366 47.4821 181.452 47.6086 181.506 47.7493C181.56 47.8899 181.582 48.041 181.57 48.1913C181.557 48.3415 181.511 48.4871 181.435 48.617C181.358 48.7469 181.253 48.8578 181.128 48.9414C181.002 49.025 180.859 49.0792 180.71 49.0999C180.561 49.1206 180.409 49.1072 180.265 49.0608C180.122 49.0144 179.991 48.9362 179.882 48.832C179.773 48.7278 179.689 48.6003 179.636 48.4591L177.636 45.4591V57.9691C177.636 58.2343 177.531 58.4886 177.343 58.6762C177.156 58.8637 176.901 58.9691 176.636 58.9691C176.371 58.9691 176.117 58.8637 175.929 58.6762C175.741 58.4886 175.636 58.2343 175.636 57.9691V51.3591H174.476V57.9591C174.476 58.2243 174.371 58.4786 174.183 58.6662C173.996 58.8537 173.741 58.9591 173.476 58.9591C173.211 58.9591 172.957 58.8537 172.769 58.6662C172.581 58.4786 172.476 58.2243 172.476 57.9591V46.9591V45.4391ZM45.2533 63.5293V59.6793H27.7633V63.5293H45.2533ZM25.3633 57.2793H47.6633V65.9293H25.3633V57.2793Z" fill="#0F1F3F"/>
</g>
<defs>
<clipPath id="clip0_2853_127954">
<rect width="252.99" height="162.47" fill="white" transform="translate(0.984375 0.529297)"/>
</clipPath>
</defs>
</svg>
