<svg width="206" height="160" viewBox="0 0 206 160" fill="none" xmlns="http://www.w3.org/2000/svg">
<g clip-path="url(#clip0_2853_127955)">
<g clip-path="url(#clip1_2853_127955)">
<path d="M37.6055 47.6999H6.60547L7.96547 42.5899C8.19547 41.6399 8.89547 38.6699 12.1355 38.6699H31.5555C34.2555 38.6699 35.1855 41.1499 35.6855 42.4799L37.6055 47.6999ZM9.45547 45.4799H34.4555L33.6355 43.2599C32.9355 41.4699 32.4355 40.8599 31.5555 40.8599H12.0955C11.3155 40.8599 10.5755 41.0299 10.0955 43.0999L9.45547 45.4799Z" fill="#49AC32"/>
<path d="M39.1373 33.5899C39.1393 34.071 38.9985 34.5417 38.7327 34.9427C38.4669 35.3436 38.088 35.6566 37.6442 35.8421C37.2003 36.0275 36.7114 36.0771 36.2394 35.9844C35.7674 35.8918 35.3335 35.6612 34.9926 35.3217C34.6518 34.9823 34.4193 34.5493 34.3248 34.0777C34.2302 33.606 34.2777 33.1169 34.4614 32.6723C34.645 32.2277 34.9564 31.8476 35.3563 31.5802C35.7561 31.3127 36.2263 31.1699 36.7073 31.1699C37.3501 31.1699 37.9666 31.4246 38.4221 31.8781C38.8775 32.3317 39.1347 32.9472 39.1373 33.5899V33.5899Z" fill="#49AC32"/>
<path d="M30.6737 34.9198C31.4083 34.9198 32.0037 34.3243 32.0037 33.5898C32.0037 32.8552 31.4083 32.2598 30.6737 32.2598C29.9392 32.2598 29.3438 32.8552 29.3438 33.5898C29.3438 34.3243 29.9392 34.9198 30.6737 34.9198Z" fill="#49AC32"/>
<path d="M24.3641 42.1895H8.41406V44.4095H24.3641V42.1895Z" fill="#49AC32"/>
<path d="M35.1761 42.2598H26.9961V44.4798H35.1761V42.2598Z" fill="#49AC32"/>
<path d="M13.3854 62.2884C12.6816 61.8492 12.1809 61.1486 11.9934 60.3404C11.8059 59.5322 11.9469 58.6827 12.3854 57.9784C12.7654 57.1184 12.8054 56.8984 12.4554 56.4684C11.9907 55.9583 11.6982 55.3149 11.6193 54.6294C11.5403 53.9439 11.6789 53.2509 12.0154 52.6484C12.3054 51.9284 12.3554 51.8084 11.7754 51.2384L13.3254 49.6484C13.8769 50.1006 14.2493 50.7345 14.3757 51.4364C14.5022 52.1382 14.3744 52.8622 14.0154 53.4784C13.7354 54.1784 13.6354 54.4184 14.1654 55.0484C14.6001 55.5767 14.8604 56.2267 14.9106 56.909C14.9607 57.5912 14.7982 58.2723 14.4454 58.8584C14.0454 59.7784 13.9754 59.9384 14.7254 60.5084L13.3854 62.2884Z" fill="#49AC32"/>
<path d="M19.1238 62.2884C18.4199 61.8492 17.9192 61.1486 17.7317 60.3404C17.5442 59.5322 17.6852 58.6827 18.1238 57.9784C18.5038 57.1184 18.5538 56.8984 18.1938 56.4684C17.7211 55.9639 17.4194 55.3233 17.3314 54.6376C17.2435 53.9519 17.3738 53.2559 17.7038 52.6484C17.9938 51.9284 18.0438 51.8084 17.4638 51.2384L19.0138 49.6484C19.5735 50.0938 19.9556 50.7245 20.0913 51.4267C20.2269 52.129 20.1073 52.8566 19.7538 53.4784C19.4738 54.1784 19.3738 54.4184 19.9038 55.0484C20.3385 55.5767 20.5988 56.2267 20.6489 56.909C20.6991 57.5912 20.5366 58.2723 20.1838 58.8584C19.7838 59.7784 19.7138 59.9384 20.4638 60.5084L19.1238 62.2884Z" fill="#49AC32"/>
<path d="M24.8638 62.2884C24.1599 61.8492 23.6592 61.1486 23.4717 60.3404C23.2842 59.5322 23.4252 58.6827 23.8638 57.9784C24.2438 57.1184 24.2938 56.8984 23.9338 56.4684C23.4624 55.9632 23.1616 55.3227 23.0737 54.6373C22.9858 53.952 23.1152 53.2563 23.4438 52.6484C23.7338 51.9284 23.7838 51.8084 23.2038 51.2384L24.7538 49.6484C25.3134 50.0938 25.6955 50.7245 25.8312 51.4267C25.9669 52.129 25.8472 52.8566 25.4938 53.4784C25.2138 54.1784 25.1138 54.4184 25.6438 55.0484C26.0784 55.5767 26.3387 56.2267 26.3889 56.909C26.439 57.5912 26.2765 58.2723 25.9238 58.8584C25.5238 59.7784 25.4538 59.9384 26.2038 60.5084L24.8638 62.2884Z" fill="#49AC32"/>
<path d="M30.6059 62.2884C29.9021 61.8492 29.4014 61.1486 29.2139 60.3404C29.0264 59.5322 29.1674 58.6827 29.6059 57.9784C29.9859 57.1184 30.0359 56.8984 29.6759 56.4684C29.2046 55.9632 28.9038 55.3227 28.8159 54.6373C28.728 53.952 28.8574 53.2563 29.1859 52.6484C29.4759 51.9284 29.5259 51.8084 28.9459 51.2384L30.4959 49.6484C31.0556 50.0938 31.4377 50.7245 31.5734 51.4267C31.7091 52.129 31.5894 52.8566 31.2359 53.4784C30.9559 54.1784 30.8559 54.4184 31.3859 55.0484C31.8206 55.5767 32.0809 56.2267 32.1311 56.909C32.1812 57.5912 32.0187 58.2723 31.6659 58.8584C31.2659 59.7684 31.1959 59.9384 31.9459 60.5084L30.6059 62.2884Z" fill="#49AC32"/>
<path d="M195.535 127.999H179.535V101.529C179.535 99.4076 180.378 97.3727 181.878 95.8724C183.379 94.3722 185.413 93.5293 187.535 93.5293C189.657 93.5293 191.692 94.3722 193.192 95.8724C194.692 97.3727 195.535 99.4076 195.535 101.529V127.999ZM181.755 125.779H193.315V101.529C193.315 99.9963 192.706 98.5262 191.622 97.4422C190.538 96.3583 189.068 95.7493 187.535 95.7493C186.002 95.7493 184.532 96.3583 183.448 97.4422C182.364 98.5262 181.755 99.9963 181.755 101.529V125.779Z" fill="#49AC32"/>
<path d="M23.3067 127.689H14.0167V127.509H10.6367V101.619C10.6367 100.569 10.8436 99.5283 11.2457 98.5577C11.6477 97.5871 12.237 96.7052 12.9799 95.9623C13.7227 95.2194 14.6046 94.6301 15.5753 94.2281C16.5459 93.8261 17.5861 93.6191 18.6367 93.6191C19.6873 93.6191 20.7276 93.8261 21.6982 94.2281C22.6688 94.6301 23.5507 95.2194 24.2936 95.9623C25.0364 96.7052 25.6257 97.5871 26.0278 98.5577C26.4298 99.5283 26.6367 100.569 26.6367 101.619V127.509H23.3067V127.689ZM12.8567 125.289H24.4167V101.619C24.4167 100.086 23.8078 98.616 22.7238 97.5321C21.6398 96.4481 20.1697 95.8391 18.6367 95.8391C17.1038 95.8391 15.6336 96.4481 14.5496 97.5321C13.4657 98.616 12.8567 100.086 12.8567 101.619V125.289Z" fill="#49AC32"/>
<path d="M23.0752 155.359C23.0197 156.554 22.5061 157.681 21.6411 158.507C20.776 159.333 19.6261 159.794 18.4302 159.794C17.2342 159.794 16.0843 159.333 15.2192 158.507C14.3542 157.681 13.8406 156.554 13.7852 155.359H23.0752Z" fill="#49AC32"/>
<path d="M20.0672 144.299H17.1172V151.389H20.0672V144.299Z" fill="#49AC32"/>
<path d="M184.055 144.299H181.105V151.389H184.055V144.299Z" fill="#49AC32"/>
<path d="M21.2159 137.57H16.0859V145.7H21.2159V137.57Z" fill="#49AC32"/>
<path d="M185.196 137.57H180.066V145.7H185.196V137.57Z" fill="#49AC32"/>
<path d="M16.1038 137.169V133.489H16.0138C15.266 133.491 14.5264 133.335 13.8438 133.029V139.379H34.3337V137.169H16.1038Z" fill="#49AC32"/>
<path d="M186.726 137.17H143.676V139.39H188.946V133.49H186.726V137.17Z" fill="#49AC32"/>
<path d="M24.4655 128.12V128.07H12.8555C12.8555 128.92 13.1923 129.735 13.7921 130.337C14.3919 130.938 15.2059 131.278 16.0555 131.28H34.3355V128.12H24.4655Z" fill="#49AC32"/>
<path d="M143.688 128.1V131.28H190.118C190.967 131.278 191.781 130.938 192.381 130.337C192.981 129.735 193.318 128.92 193.318 128.07H153.148L143.688 128.1Z" fill="#49AC32"/>
<path d="M143.676 125.88H152.196L152.226 125.85H143.676V125.88Z" fill="#49AC32"/>
<path d="M186.728 132.389H143.688V133.499H186.728V132.389Z" fill="#49AC32"/>
<path d="M34.3355 132.389H16.1055V133.499H34.3355V132.389Z" fill="#49AC32"/>
<path d="M34.3375 125.85H26.6875V125.9H34.3375V125.85Z" fill="#49AC32"/>
<path d="M155.346 125.859L154.246 126.969H194.426V128.079C194.426 129.223 193.972 130.321 193.164 131.131C192.356 131.94 191.26 132.397 190.116 132.399H188.946V133.499H190.116C191.554 133.499 192.932 132.928 193.949 131.912C194.965 130.895 195.536 129.517 195.536 128.079V125.859H155.346Z" fill="#49AC32"/>
<path d="M14.0169 131.859C13.343 131.489 12.7806 130.945 12.3884 130.284C11.9962 129.623 11.7885 128.868 11.7869 128.099V126.959H24.4669V125.859H10.6369V128.079C10.6291 129.14 10.9329 130.179 11.5107 131.068C12.0885 131.957 12.9148 132.656 13.8869 133.079V131.859H14.0169Z" fill="#49AC32"/>
<path d="M16.1058 133.489V132.389H16.0158C15.316 132.378 14.6295 132.196 14.0158 131.859H13.9258V133.059C14.6084 133.365 15.348 133.521 16.0958 133.519L16.1058 133.489Z" fill="#49AC32"/>
<path d="M188.947 132.389H186.727V133.499H188.947V132.389Z" fill="#49AC32"/>
<path d="M193.318 128.069C193.318 128.919 192.981 129.734 192.381 130.335C191.781 130.937 190.967 131.276 190.118 131.279H143.688V132.389H186.688V131.859H188.908V132.419H190.077C191.222 132.416 192.318 131.96 193.126 131.15C193.934 130.34 194.388 129.243 194.387 128.099V126.959H154.247L153.148 128.069H193.318Z" fill="#49AC32"/>
<path d="M34.3361 131.279H16.0161C15.1665 131.276 14.3526 130.937 13.7527 130.335C13.1529 129.734 12.8161 128.919 12.8161 128.069H24.4661V126.959H11.7461V128.069C11.7462 128.847 11.9574 129.61 12.3572 130.278C12.7569 130.945 13.3303 131.492 14.0161 131.859H16.1461V132.419H34.3361V131.279Z" fill="#49AC32"/>
<path d="M14.0156 131.859C14.6504 132.219 15.3661 132.412 16.0956 132.419H16.1456V131.859H14.0156Z" fill="#49AC32"/>
<path d="M188.947 131.83H186.727V132.39H188.947V131.83Z" fill="#49AC32"/>
<path d="M26.6848 110.929H36.9148C37.4062 110.147 37.9579 109.405 38.5648 108.709H24.4648V125.859H26.6848V110.929Z" fill="#49AC32"/>
<path d="M144.136 110.859C145.094 110.853 146.013 110.472 146.696 109.799L179.696 76.7989C180.712 75.8317 182.062 75.2923 183.466 75.2923C184.869 75.2923 186.219 75.8317 187.236 76.7989L190.896 80.4589C191.312 80.8742 191.642 81.3675 191.868 81.9106C192.093 82.4537 192.209 83.0359 192.209 83.6239C192.209 84.212 192.093 84.7942 191.868 85.3373C191.642 85.8804 191.312 86.3737 190.896 86.7889L152.226 125.859H155.346L192.486 88.3589C193.108 87.7376 193.602 86.9995 193.939 86.187C194.276 85.3745 194.45 84.5035 194.45 83.6239C194.45 82.7443 194.276 81.8734 193.939 81.0609C193.602 80.2484 193.108 79.5103 192.486 78.8889L188.836 75.2289C187.396 73.8571 185.484 73.0918 183.496 73.0918C181.507 73.0918 179.595 73.8571 178.156 75.2289L145.156 108.229C145.024 108.36 144.868 108.463 144.696 108.534C144.525 108.604 144.341 108.64 144.156 108.639H140.016C140.586 109.335 141.098 110.078 141.546 110.859H144.136Z" fill="#49AC32"/>
<path d="M34.3348 128.07H24.4648V128.12H34.3348V128.07Z" fill="#49AC32"/>
<path d="M153.126 128.09L153.146 128.07H143.676V128.1L153.126 128.09Z" fill="#49AC32"/>
<path d="M34.3348 126.96V125.9L26.6848 125.91V125.85H24.4648V126.96H34.3348Z" fill="#49AC32"/>
<path d="M152.196 125.88H143.676V126.96H154.246L155.346 125.85H152.226L152.196 125.88Z" fill="#49AC32"/>
<path d="M143.676 128.069H153.146L154.246 126.959H143.676V128.069Z" fill="#49AC32"/>
<path d="M34.3348 126.959H24.4648V128.069H34.3348V126.959Z" fill="#49AC32"/>
<path d="M35.4459 133.49H34.3359V137.16H35.4459V133.49Z" fill="#49AC32"/>
<path d="M34.336 125.859H35.446V119.859C35.4335 116.646 36.4035 113.506 38.226 110.859H36.916C35.2211 113.555 34.3264 116.676 34.336 119.859V125.859Z" fill="#49AC32"/>
<path d="M51.2764 104.04H127.796C129.807 104.04 131.796 104.452 133.641 105.25C135.487 106.048 137.149 107.215 138.526 108.68H140.016C138.528 106.881 136.661 105.433 134.549 104.439C132.437 103.445 130.131 102.93 127.796 102.93H51.2764C48.8691 102.931 46.4899 103.446 44.2979 104.441C42.1059 105.436 40.1518 106.888 38.5664 108.7H40.0164C41.4927 107.218 43.2477 106.043 45.1803 105.244C47.113 104.444 49.1848 104.035 51.2764 104.04V104.04Z" fill="#49AC32"/>
<path d="M142.576 147.919H35.4459V139.389H34.3359V149.029H143.676V139.389H142.576V147.919Z" fill="#49AC32"/>
<path d="M142.564 125.859H143.684V118.859C143.683 116.077 142.944 113.344 141.544 110.939H140.254C141.766 113.304 142.567 116.053 142.564 118.859V125.859Z" fill="#49AC32"/>
<path d="M143.676 133.49H142.566V137.16H143.676V133.49Z" fill="#49AC32"/>
<path d="M35.4459 137.17H34.3359V139.39H35.4459V137.17Z" fill="#49AC32"/>
<path d="M143.676 137.17H142.566V139.39H143.676V137.17Z" fill="#49AC32"/>
<path d="M35.4459 128.119H34.3359V131.269H35.4459V128.119Z" fill="#49AC32"/>
<path d="M143.676 128.1H142.566V131.28H143.676V128.1Z" fill="#49AC32"/>
<path d="M35.4459 125.85H34.3359V125.9H35.4459V125.85Z" fill="#49AC32"/>
<path d="M143.676 132.389H142.566V133.499H143.676V132.389Z" fill="#49AC32"/>
<path d="M35.4459 132.389H34.3359V133.499H35.4459V132.389Z" fill="#49AC32"/>
<path d="M143.676 125.85H142.566V125.87H143.676V125.85Z" fill="#49AC32"/>
<path d="M35.4459 131.279H34.3359V132.389H35.4459V131.279Z" fill="#49AC32"/>
<path d="M143.676 131.279H142.566V132.389H143.676V131.279Z" fill="#49AC32"/>
<path d="M140.257 110.859H141.547C141.1 110.077 140.588 109.335 140.017 108.639H138.527C139.172 109.323 139.752 110.066 140.257 110.859V110.859Z" fill="#49AC32"/>
<path d="M38.2241 110.919C38.7539 110.128 39.3529 109.385 40.0141 108.699H38.5641C37.9571 109.395 37.4054 110.137 36.9141 110.919H38.2241Z" fill="#49AC32"/>
<path d="M143.676 128.07H142.566V128.1H143.676V128.07Z" fill="#49AC32"/>
<path d="M35.4459 128.07H34.3359V128.12H35.4459V128.07Z" fill="#49AC32"/>
<path d="M35.4459 125.898H34.3359V126.958H35.4459V125.898Z" fill="#49AC32"/>
<path d="M143.676 125.879H142.566V126.959H143.676V125.879Z" fill="#49AC32"/>
<path d="M143.676 126.959H142.566V128.069H143.676V126.959Z" fill="#49AC32"/>
<path d="M35.4459 126.959H34.3359V128.069H35.4459V126.959Z" fill="#49AC32"/>
<path d="M51.2756 105.149H127.796C131.172 105.149 134.427 106.408 136.926 108.679H138.526C137.148 107.214 135.486 106.047 133.641 105.249C131.795 104.451 129.806 104.039 127.796 104.039H51.2756C49.1841 104.034 47.1122 104.443 45.1796 105.243C43.2469 106.043 41.4919 107.217 40.0156 108.699H41.7156C44.3752 106.411 47.767 105.151 51.2756 105.149V105.149Z" fill="#49AC32"/>
<path d="M142.575 133.49H141.465V137.16H142.575V133.49Z" fill="#49AC32"/>
<path d="M141.464 118.859V125.859H142.564V118.859C142.568 116.053 141.766 113.304 140.254 110.939H138.914C140.568 113.25 141.459 116.018 141.464 118.859Z" fill="#49AC32"/>
<path d="M35.4454 125.859H36.5554V119.859C36.5482 116.603 37.6248 113.437 39.6154 110.859H38.2254C36.4029 113.506 35.4329 116.646 35.4454 119.859V125.859Z" fill="#49AC32"/>
<path d="M141.465 146.809H36.5553V139.389H35.4453V147.919H142.575V139.389H141.465V146.809Z" fill="#49AC32"/>
<path d="M36.5553 133.49H35.4453V137.16H36.5553V133.49Z" fill="#49AC32"/>
<path d="M36.5553 137.17H35.4453V139.39H36.5553V137.17Z" fill="#49AC32"/>
<path d="M142.575 137.17H141.465V139.39H142.575V137.17Z" fill="#49AC32"/>
<path d="M142.575 128.1H141.465V131.28H142.575V128.1Z" fill="#49AC32"/>
<path d="M36.5553 128.119H35.4453V131.269H36.5553V128.119Z" fill="#49AC32"/>
<path d="M142.575 132.389H141.465V133.499H142.575V132.389Z" fill="#49AC32"/>
<path d="M36.5553 125.85H35.4453V125.9H36.5553V125.85Z" fill="#49AC32"/>
<path d="M142.575 125.85H141.465V125.88H142.575V125.85Z" fill="#49AC32"/>
<path d="M36.5553 132.389H35.4453V133.499H36.5553V132.389Z" fill="#49AC32"/>
<path d="M36.5553 131.279H35.4453V132.389H36.5553V131.279Z" fill="#49AC32"/>
<path d="M142.575 131.279H141.465V132.389H142.575V131.279Z" fill="#49AC32"/>
<path d="M41.7175 108.699H40.0175C39.3425 109.383 38.7301 110.126 38.1875 110.919H39.6175C40.2384 110.108 40.9422 109.364 41.7175 108.699V108.699Z" fill="#49AC32"/>
<path d="M138.916 110.859H140.256C139.75 110.066 139.171 109.323 138.526 108.639H136.926C137.666 109.306 138.333 110.05 138.916 110.859V110.859Z" fill="#49AC32"/>
<path d="M36.5553 128.07H35.4453V128.12H36.5553V128.07Z" fill="#49AC32"/>
<path d="M142.575 128.07H141.465V128.1H142.575V128.07Z" fill="#49AC32"/>
<path d="M142.575 125.879H141.465V126.959H142.575V125.879Z" fill="#49AC32"/>
<path d="M36.5553 125.898H35.4453V126.958H36.5553V125.898Z" fill="#49AC32"/>
<path d="M36.5553 126.959H35.4453V128.069H36.5553V126.959Z" fill="#49AC32"/>
<path d="M142.575 126.959H141.465V128.069H142.575V126.959Z" fill="#49AC32"/>
<path d="M187.014 155.359C187.014 156.59 186.526 157.77 185.655 158.64C184.785 159.511 183.605 159.999 182.374 159.999C181.144 159.999 179.964 159.511 179.093 158.64C178.223 157.77 177.734 156.59 177.734 155.359H187.014Z" fill="#49AC32"/>
<path d="M182.266 151.859C183.234 151.861 184.174 152.183 184.941 152.774C185.707 153.366 186.258 154.193 186.506 155.129H178.016C178.265 154.191 178.817 153.363 179.586 152.771C180.354 152.18 181.297 151.859 182.266 151.859M182.266 149.639C180.516 149.641 178.837 150.337 177.599 151.574C176.36 152.811 175.662 154.488 175.656 156.239V157.349H188.866V156.239C188.864 154.489 188.167 152.812 186.93 151.575C185.693 150.338 184.016 149.641 182.266 149.639V149.639Z" fill="#49AC32"/>
<path d="M18.4438 151.859C19.4126 151.858 20.3544 152.179 21.1216 152.77C21.8888 153.362 22.4382 154.191 22.6838 155.129H14.2037C14.4508 154.192 15.0006 153.364 15.7675 152.772C16.5344 152.181 17.4753 151.86 18.4438 151.859M18.4438 149.639C16.6941 149.641 15.0169 150.338 13.7798 151.575C12.5426 152.812 11.8464 154.489 11.8438 156.239V157.349H25.0138V156.239C25.0085 154.488 24.31 152.811 23.0713 151.574C21.8325 150.337 20.1543 149.641 18.4037 149.639H18.4438Z" fill="#49AC32"/>
<path d="M114.368 86.5509L114.34 88.4707L162.065 89.1788L162.093 87.259L114.368 86.5509Z" fill="#49AC32"/>
<path d="M114.391 81.0511L114.352 82.9707L161.682 83.9373L161.721 82.0177L114.391 81.0511Z" fill="#49AC32"/>
<path d="M202.997 13.1289H200.777V156.519H202.997V13.1289Z" fill="#49AC32"/>
<path d="M163.454 14.5488H161.234V92.7588H163.454V14.5488Z" fill="#49AC32"/>
<path d="M173.017 14.1797H170.797V50.3697H173.017V14.1797Z" fill="#49AC32"/>
<path d="M182.997 13.8086H180.777V32.5886H182.997V13.8086Z" fill="#49AC32"/>
<path d="M191.134 13.8086H188.914V46.8286H191.134V13.8086Z" fill="#49AC32"/>
<path d="M115.146 13.3789H112.926V104.439H115.146V13.3789Z" fill="#49AC32"/>
<path d="M61.7044 14.5488H59.4844V104.019H61.7044V14.5488Z" fill="#49AC32"/>
<path d="M70.9544 14.1797H68.7344V29.2697H70.9544V14.1797Z" fill="#49AC32"/>
<path d="M93.7356 13.8086H91.5156V27.6486H93.7356V13.8086Z" fill="#49AC32"/>
<path d="M81.4348 13.8086H79.2148V33.7586H81.4348V13.8086Z" fill="#49AC32"/>
<path d="M105.314 13.8086H103.094V41.9386H105.314V13.8086Z" fill="#49AC32"/>
<path d="M148.788 41.3992C153.399 41.3992 157.137 37.6608 157.137 33.0492C157.137 28.4376 153.399 24.6992 148.788 24.6992C144.176 24.6992 140.438 28.4376 140.438 33.0492C140.438 37.6608 144.176 41.3992 148.788 41.3992Z" fill="#49AC32"/>
<path d="M161.526 58.4492C161.526 58.4492 146.076 58.4492 135.066 62.8992C140.516 65.2992 151.066 71.1992 156.246 82.2692L161.346 82.0592L161.526 58.4492Z" fill="#49AC32"/>
<path d="M115.137 61.6802V81.8202L148.757 82.4602C148.877 82.5902 154.547 83.1602 154.667 83.2902L153.887 82.3702C144.307 67.0602 130.557 60.7902 115.137 61.6802Z" fill="#49AC32"/>
<path d="M205.855 14.9794H56.5547V4.85938H205.855V14.9794ZM59.0147 12.6194H203.365V7.21937H59.0147V12.6194Z" fill="#49AC32"/>
<path d="M86.2862 72.6685H86.0762C85.3561 72.6359 84.6667 72.3678 84.1139 71.9053C83.561 71.4428 83.1754 70.8115 83.0162 70.1085C82.2982 70.0813 81.6081 69.824 81.0475 69.3746C80.487 68.9252 80.0857 68.3075 79.9031 67.6127C79.7204 66.9179 79.7659 66.1827 80.033 65.5157C80.3 64.8487 80.7744 64.2853 81.3862 63.9085C81.1852 63.2168 81.2133 62.4787 81.4661 61.8042C81.719 61.1298 82.1831 60.5551 82.7893 60.166C83.3954 59.7769 84.1112 59.5942 84.8297 59.6451C85.5482 59.696 86.231 59.9778 86.7762 60.4485C87.3673 60.0379 88.0752 59.8292 88.7946 59.8535C89.5139 59.8778 90.2062 60.1339 90.7682 60.5835C91.3302 61.0331 91.732 61.6523 91.9136 62.3487C92.0952 63.0452 92.047 63.7817 91.7762 64.4485C92.3613 64.8852 92.7871 65.5016 92.9886 66.2034C93.19 66.9051 93.156 67.6536 92.8917 68.3341C92.6274 69.0147 92.1474 69.5899 91.5252 69.9718C90.9029 70.3537 90.1727 70.5211 89.4462 70.4485C89.2234 71.1061 88.797 71.6757 88.2289 72.0748C87.6608 72.4739 86.9804 72.6819 86.2862 72.6685V72.6685ZM84.9662 67.6685L85.1562 69.3985C85.1814 69.6648 85.301 69.9132 85.4934 70.099C85.6859 70.2847 85.9384 70.3954 86.2054 70.4111C86.4724 70.4268 86.7362 70.3465 86.9491 70.1846C87.162 70.0227 87.31 69.79 87.3662 69.5285L87.7462 67.8585L89.4462 68.2285C89.7069 68.2868 89.9798 68.249 90.2149 68.1223C90.45 67.9956 90.6315 67.7883 90.7262 67.5385C90.8312 67.2899 90.8403 67.0111 90.7516 66.7562C90.663 66.5013 90.4829 66.2883 90.2462 66.1585L88.7462 65.2785L89.6162 63.7685C89.7563 63.5399 89.8073 63.2677 89.7593 63.0039C89.7113 62.74 89.5678 62.5032 89.3562 62.3385C89.1586 62.1565 88.8998 62.0555 88.6312 62.0555C88.3625 62.0555 88.1037 62.1565 87.9062 62.3385L86.5962 63.4885L85.4362 62.1985C85.2605 61.9948 85.0173 61.8611 84.7512 61.8219C84.485 61.7827 84.2137 61.8406 83.9867 61.985C83.7597 62.1295 83.5923 62.3508 83.5151 62.6085C83.4379 62.8662 83.456 63.1431 83.5662 63.3885L84.2662 64.9885L82.6762 65.6985C82.4124 65.7938 82.1961 65.988 82.0729 66.2399C81.9497 66.4919 81.9294 66.7818 82.0162 67.0485C82.0801 67.3077 82.236 67.5348 82.4549 67.6875C82.6739 67.8402 82.9409 67.9081 83.2062 67.8785L84.9662 67.6685Z" fill="#49AC32"/>
<path d="M70.545 72.7885C69.8571 72.7962 69.1843 72.5867 68.6224 72.19C68.0604 71.7932 67.6379 71.2293 67.415 70.5785C66.6943 70.6355 65.9745 70.4579 65.3631 70.0721C64.7517 69.6863 64.2815 69.1131 64.0227 68.438C63.764 67.763 63.7305 67.0224 63.9274 66.3267C64.1242 65.6311 64.5408 65.0179 65.115 64.5785C64.8441 63.9117 64.7959 63.1752 64.9775 62.4787C65.1592 61.7823 65.5609 61.1631 66.1229 60.7135C66.685 60.2639 67.3772 60.0078 68.0965 59.9835C68.8159 59.9592 69.5238 60.1679 70.115 60.5785C70.6618 60.1085 71.346 59.8281 72.0654 59.7792C72.7847 59.7303 73.5006 59.9154 74.1061 60.307C74.7115 60.6987 75.1739 61.2757 75.4243 61.9518C75.6746 62.628 75.6994 63.3671 75.495 64.0585C76.1101 64.4339 76.5874 64.9981 76.8556 65.667C77.1237 66.3359 77.1683 67.0736 76.9826 67.77C76.797 68.4663 76.3912 69.084 75.8257 69.5307C75.2602 69.9774 74.5653 70.2292 73.845 70.2485C73.6819 70.9505 73.2935 71.5797 72.7391 72.0402C72.1848 72.5007 71.4949 72.767 70.775 72.7985L70.545 72.7885ZM69.095 67.9885L69.465 69.6885C69.5158 69.9524 69.6624 70.1882 69.8765 70.3506C70.0906 70.513 70.3571 70.5906 70.625 70.5685C70.884 70.5499 71.1277 70.4386 71.3114 70.255C71.4951 70.0713 71.6064 69.8276 71.625 69.5685L71.865 67.8585L73.6049 68.0285C73.8713 68.065 74.1416 67.9998 74.3621 67.846C74.5826 67.6922 74.7371 67.4611 74.795 67.1985C74.8786 66.9381 74.8612 66.6558 74.7464 66.4076C74.6315 66.1593 74.4276 65.9634 74.175 65.8585L72.585 65.1485L73.2849 63.5485C73.3937 63.3044 73.4115 63.0294 73.3353 62.7732C73.259 62.517 73.0936 62.2966 72.869 62.1517C72.6444 62.0068 72.3754 61.947 72.1106 61.9831C71.8458 62.0192 71.6026 62.1488 71.425 62.3485L70.255 63.6385L68.955 62.4785C68.757 62.3055 68.5044 62.2077 68.2415 62.2022C67.9787 62.1967 67.7222 62.2838 67.5172 62.4484C67.3121 62.6129 67.1714 62.8444 67.1198 63.1022C67.0682 63.36 67.109 63.6277 67.235 63.8585L68.095 65.3785L66.595 66.2585C66.369 66.394 66.198 66.6047 66.112 66.8538C66.026 67.1028 66.0306 67.3742 66.125 67.6202C66.2193 67.8662 66.3974 68.0711 66.6278 68.1988C66.8582 68.3265 67.1263 68.3689 67.385 68.3185L69.095 67.9885Z" fill="#49AC32"/>
<path d="M76.3572 64.6687C75.638 64.6731 74.9365 64.4451 74.3572 64.0187C73.7687 63.6019 73.3335 63.0032 73.1185 62.3148C72.9034 61.6264 72.9206 60.8864 73.1672 60.2087C72.5824 59.8057 72.1413 59.2267 71.908 58.5558C71.6747 57.885 71.6613 57.1572 71.8698 56.4782C72.0783 55.7993 72.4978 55.2044 73.0674 54.7801C73.637 54.3558 74.327 54.1241 75.0372 54.1187H75.1373C75.3342 53.4262 75.7529 52.8174 76.3291 52.3857C76.9053 51.9539 77.6073 51.7232 78.3272 51.7287V51.7287C79.0476 51.7204 79.7509 51.9487 80.329 52.3786C80.907 52.8086 81.328 53.4164 81.5273 54.1087C82.2451 54.0935 82.9489 54.3086 83.5356 54.7225C84.1222 55.1364 84.5609 55.7274 84.7872 56.4087C85.0193 57.0924 85.0207 57.8333 84.7913 58.5179C84.5619 59.2025 84.1144 59.7929 83.5172 60.1987C83.7511 60.8768 83.7612 61.612 83.546 62.2963C83.3307 62.9805 82.9016 63.5776 82.3216 63.9996C81.7417 64.4217 81.0416 64.6465 80.3244 64.641C79.6071 64.6354 78.9106 64.3998 78.3372 63.9687C77.7718 64.4128 77.0761 64.6587 76.3572 64.6687ZM75.0172 56.3387C74.7682 56.3462 74.5287 56.4365 74.3367 56.5953C74.1447 56.7542 74.0111 56.9725 73.9572 57.2158C73.9033 57.4591 73.932 57.7135 74.0389 57.9386C74.1457 58.1637 74.3246 58.3467 74.5472 58.4587L76.0972 59.2487L75.3472 60.8587C75.2264 61.0963 75.1942 61.3693 75.2566 61.6285C75.3189 61.8877 75.4717 62.1161 75.6874 62.2728C75.9031 62.4294 76.1676 62.504 76.4333 62.4831C76.6991 62.4622 76.9487 62.3472 77.1373 62.1587L78.3772 60.8587L79.6172 62.0887C79.8055 62.2823 80.0574 62.4013 80.3264 62.4239C80.5955 62.4465 80.8636 62.3711 81.0815 62.2116C81.2994 62.0522 81.4524 61.8194 81.5122 61.5561C81.5721 61.2928 81.5348 61.0167 81.4072 60.7787L80.6172 59.2287L82.1672 58.4287C82.4094 58.3113 82.5996 58.1085 82.7011 57.8592C82.8027 57.61 82.8084 57.332 82.7172 57.0787C82.6348 56.8252 82.4647 56.6094 82.2374 56.4701C82.0101 56.3308 81.7406 56.2771 81.4772 56.3187L79.7572 56.5887L79.4772 54.8587C79.4404 54.5929 79.3068 54.35 79.102 54.1765C78.8972 54.0031 78.6355 53.9113 78.3672 53.9187V53.9187C78.099 53.9113 77.8373 54.0031 77.6325 54.1765C77.4277 54.35 77.2941 54.5929 77.2572 54.8587L77.0172 56.6087L75.2972 56.3487L75.0172 56.3387Z" fill="#49AC32"/>
<path d="M100.375 85.3089H99.5553C98.2001 85.3089 96.9003 84.7705 95.942 83.8122C94.9837 82.8539 94.4453 81.5542 94.4453 80.1989V75.1289H105.445V80.1989C105.445 81.5473 104.912 82.841 103.963 83.7982C103.013 84.7553 101.724 85.2984 100.375 85.3089ZM96.6653 77.3089V80.1589C96.6679 80.9246 96.9733 81.6581 97.5147 82.1995C98.0561 82.7409 98.7896 83.0463 99.5553 83.0489H100.375C101.141 83.0463 101.875 82.7409 102.416 82.1995C102.957 81.6581 103.263 80.9246 103.265 80.1589V77.3489L96.6653 77.3089Z" fill="#49AC32"/>
<path d="M105.937 82.2988H104.777V80.0788H105.937C106.161 80.0553 106.368 79.9498 106.518 79.7827C106.669 79.6156 106.752 79.3987 106.752 79.1738C106.752 78.949 106.669 78.7321 106.518 78.565C106.368 78.3979 106.161 78.2924 105.937 78.2688H104.777V76.0488H105.937C106.736 76.094 107.486 76.4429 108.035 77.024C108.585 77.6051 108.89 78.3743 108.89 79.1738C108.89 79.9733 108.585 80.7425 108.035 81.3236C107.486 81.9047 106.736 82.2537 105.937 82.2988V82.2988Z" fill="#49AC32"/>
<path d="M108.817 92.1395H65.457V84.9395H108.817V92.1395ZM67.867 89.9194H106.407V87.2495H67.867V89.9194Z" fill="#49AC32"/>
</g>
<path fill-rule="evenodd" clip-rule="evenodd" d="M7.31563 47.6194H36.8856C38.5469 47.6194 40.1408 46.9622 41.3192 45.7912C42.4977 44.6203 43.1651 43.0306 43.1756 41.3694V33.1594C43.1756 31.4902 42.5133 29.8893 41.3339 28.7081C40.1546 27.5269 38.5548 26.862 36.8856 26.8594H7.31563C5.65247 26.862 4.05759 27.5211 2.87782 28.6933C1.69805 29.8656 1.0288 31.4563 1.01562 33.1194V41.3294C1.01827 42.9985 1.68319 44.5984 2.86438 45.7777C4.04558 46.957 5.64649 47.6194 7.31563 47.6194ZM4.43063 30.2344C5.19578 29.4692 6.23354 29.0394 7.31563 29.0394H36.8856C37.966 29.042 39.0012 29.473 39.7642 30.2379C40.5271 31.0028 40.9556 32.039 40.9556 33.1194V41.3294C40.9302 42.4379 40.4785 43.4941 39.6944 44.2781C38.9103 45.0622 37.8542 45.5139 36.7456 45.5394H7.17562C6.09512 45.5028 5.07328 45.039 4.33454 44.2496C3.5958 43.4602 3.20056 42.4099 3.23563 41.3294V33.1194C3.23563 32.0373 3.66548 30.9995 4.43063 30.2344ZM154.218 121.859L156.788 124.389L192.848 88.0488L190.408 85.6188C189.001 84.2764 187.132 83.5273 185.188 83.5273C183.243 83.5273 181.374 84.2764 179.968 85.6188L154.218 111.419C152.835 112.804 152.059 114.682 152.059 116.639C152.059 118.596 152.835 120.473 154.218 121.859ZM183.199 86.0507C183.826 85.7897 184.499 85.6564 185.178 85.6588C186.53 85.668 187.823 86.2107 188.778 87.1688L189.648 88.0388L185.295 92.4056L180.799 87.9091L181.528 87.1788C182.004 86.6952 182.572 86.3117 183.199 86.0507ZM179.23 89.4804L174.057 94.6638L178.557 99.1658L183.728 93.978L179.23 89.4804ZM172.489 96.2351L176.99 100.738L171.311 106.437L166.804 101.931L172.489 96.2351ZM165.235 103.503L159.881 108.867L164.393 113.378L169.743 108.009L165.235 103.503ZM156.648 121.149L162.825 114.95L158.313 110.438L155.778 112.979C155.298 113.458 154.918 114.027 154.658 114.653C154.398 115.28 154.265 115.951 154.265 116.629C154.265 117.307 154.398 117.978 154.658 118.604C154.918 119.231 155.298 119.8 155.778 120.279L156.648 121.149ZM99.6342 74.2189L98.1342 72.5789L98.9542 71.8289C99.6842 71.1689 99.5642 70.9889 98.8942 69.9989L98.8821 69.981C98.2084 68.9858 96.9087 67.0657 99.3142 64.8789L100.134 64.1289L101.624 65.7689L100.814 66.5189C99.8269 67.4075 100.019 67.6917 100.708 68.7095L100.734 68.7489L100.736 68.7523C101.447 69.8025 102.602 71.511 100.454 73.4789L99.6342 74.2189ZM72.3867 85.0194H84.5267L82.1667 70.6094H74.7467L72.3867 85.0194ZM81.9267 82.7994H75.0167L76.6367 72.8594H80.2767L81.9267 82.7994ZM72.1055 92.1497L67.7355 100.78H65.8555L67.7355 92.1497H72.1055ZM75.7155 89.9297H65.9455L63.1055 103H69.1055L75.7155 89.9297ZM105.165 103H111.165L108.325 89.9297H98.5547L105.165 103ZM108.415 100.78H106.535L102.165 92.1497H106.535L108.415 100.78Z" fill="#0F1F3F"/>
</g>
<defs>
<clipPath id="clip0_2853_127955">
<rect width="205" height="160" fill="white" transform="translate(0.984375)"/>
</clipPath>
<clipPath id="clip1_2853_127955">
<rect width="204.84" height="155.14" fill="white" transform="translate(1.01562 4.85938)"/>
</clipPath>
</defs>
</svg>
