<svg width="32" height="40" viewBox="0 0 32 40" fill="none" xmlns="http://www.w3.org/2000/svg">
<g clip-path="url(#clip0_3770_120438)">
<g filter="url(#filter0_d_3770_120438)">
<path d="M32 16C32 24.8366 16 40 16 40C16 40 0 24.8366 0 16C0 7.1634 7.1634 0 16 0C24.837 0 32 7.1634 32 16Z" fill="#49AC32"/>
<path d="M16 22C19.3137 22 22 19.3137 22 16C22 12.6863 19.3137 10 16 10C12.6863 10 10 12.6863 10 16C10 19.3137 12.6863 22 16 22Z" fill="white"/>
</g>
</g>
<defs>
<filter id="filter0_d_3770_120438" x="-80" y="-48" width="192" height="200" filterUnits="userSpaceOnUse" color-interpolation-filters="sRGB">
<feFlood flood-opacity="0" result="BackgroundImageFix"/>
<feColorMatrix in="SourceAlpha" type="matrix" values="0 0 0 0 0 0 0 0 0 0 0 0 0 0 0 0 0 0 127 0" result="hardAlpha"/>
<feOffset dy="32"/>
<feGaussianBlur stdDeviation="40"/>
<feComposite in2="hardAlpha" operator="out"/>
<feColorMatrix type="matrix" values="0 0 0 0 0.847049 0 0 0 0 0.891546 0 0 0 0 0.991667 0 0 0 1 0"/>
<feBlend mode="normal" in2="BackgroundImageFix" result="effect1_dropShadow_3770_120438"/>
<feBlend mode="normal" in="SourceGraphic" in2="effect1_dropShadow_3770_120438" result="shape"/>
</filter>
<clipPath id="clip0_3770_120438">
<rect width="32" height="40" fill="white"/>
</clipPath>
</defs>
</svg>
