<svg width="150" height="150" viewBox="0 0 150 150" fill="none" xmlns="http://www.w3.org/2000/svg">
<path fill-rule="evenodd" clip-rule="evenodd" d="M4.57617 100.963H65.8662V97.9629H4.57617V85.7829H55.5762V82.7829H38.4762V80.1729C38.4683 76.4915 37.0023 72.9631 34.3991 70.3599C31.796 67.7568 28.2676 66.2908 24.5862 66.2829H8.32617C6.9881 66.2943 5.68333 66.7014 4.57617 67.4529V39.4629H1.57617V131.233H4.57617V115.453H66.0162V112.453H4.57617V100.963ZM4.57617 73.0329C4.57614 72.0435 4.96711 71.0942 5.66389 70.3918C6.36068 69.6894 7.30682 69.2908 8.29617 69.2829H24.5862C27.4719 69.2908 30.2373 70.4407 32.2778 72.4812C34.3184 74.5218 35.4683 77.2871 35.4762 80.1729V82.7529H4.57617V73.0329ZM76.8164 100.963L76.8222 97.9629L83.7222 97.9761L83.7164 100.976L76.8164 100.963ZM76.7988 115.523L76.8041 112.523L83.554 112.535L83.5488 115.535L76.7988 115.523ZM145.425 82.7852V58.3652H148.425V131.235H145.425V115.455H94.6352V112.455H145.425V100.995L94.3652 100.965V97.9652L145.425 97.9952V85.7852H94.6352V82.7852H145.425Z" fill="#0F1F3F"/>
<path fill-rule="evenodd" clip-rule="evenodd" d="M75.1107 41.8877C73.0268 43.2613 70.582 43.9851 68.0862 43.9673C64.7625 43.9357 61.5853 42.5952 59.2434 40.2365C56.9016 37.8778 55.5839 34.6911 55.5762 31.3673C55.5762 28.8714 56.3175 26.4318 57.7061 24.3578C59.0946 22.2838 61.0678 20.669 63.3754 19.718C65.683 18.7671 68.221 18.5228 70.6676 19.0164C73.1142 19.5099 75.3591 20.7189 77.1176 22.49C78.8761 24.2612 80.069 26.5147 80.5449 28.9648C81.0209 31.4148 80.7585 33.951 79.791 36.2518C78.8235 38.5525 77.1946 40.514 75.1107 41.8877ZM73.4439 23.3412C71.8534 22.2973 69.9886 21.7494 68.0862 21.7673C65.5557 21.791 63.137 22.8129 61.356 24.6107C59.5751 26.4084 58.5761 28.8367 58.5762 31.3673C58.5763 33.2698 59.1416 35.1294 60.2005 36.71C61.2594 38.2906 62.7641 39.5209 64.5235 40.2448C66.2829 40.9687 68.2178 41.1535 70.0824 40.7757C71.947 40.3979 73.6574 39.4746 74.9963 38.123C76.3352 36.7714 77.2424 35.0525 77.6026 33.1843C77.9627 31.3162 77.7597 29.3832 77.0193 27.6307C76.2789 25.8782 75.0345 24.3852 73.4439 23.3412ZM81.4064 74.3838H89.1464C90.9739 74.3997 92.7212 75.1368 94.0079 76.4347C95.2946 77.7326 96.0165 79.4862 96.0164 81.3138V113.714C96.0164 115.552 95.2863 117.314 93.9867 118.614C92.687 119.914 90.9244 120.644 89.0864 120.644C87.2485 120.644 85.4858 119.914 84.1862 118.614C82.8865 117.314 82.1564 115.552 82.1564 113.714V87.7638H78.2864V113.804C78.2864 115.642 77.5563 117.404 76.2567 118.704C74.957 120.004 73.1944 120.734 71.3564 120.734C69.5185 120.734 67.7558 120.004 66.4562 118.704C65.1565 117.404 64.4264 115.642 64.4264 113.804V88.2438H61.4264C56.3864 88.2138 52.9964 85.3038 52.9964 80.9538V58.0038C47.5441 55.2634 42.9584 51.0648 39.749 45.8746C36.5396 40.6845 34.8321 34.7061 34.8164 28.6038C34.8164 26.7659 35.5465 25.0032 36.8462 23.7036C38.1458 22.404 39.9085 21.6738 41.7464 21.6738C43.5844 21.6738 45.347 22.404 46.6467 23.7036C47.9463 25.0032 48.6764 26.7659 48.6764 28.6038C48.6764 33.6642 50.6866 38.5172 54.2648 42.0954C57.843 45.6736 62.6961 47.6838 67.7564 47.6838C72.8167 47.6838 77.6698 45.6736 81.248 42.0954C84.8262 38.5172 86.8364 33.6642 86.8364 28.6038C86.7717 27.6759 86.9093 26.7451 87.2399 25.8757C87.5704 25.0062 88.0859 24.219 88.7507 23.5685C89.4155 22.9179 90.2137 22.4196 91.0901 22.108C91.9665 21.7964 92.9001 21.679 93.8264 21.7638C95.6409 21.7637 97.3825 22.4783 98.6739 23.7529C99.9653 25.0275 100.703 26.7595 100.726 28.5738C100.72 34.9002 98.8962 41.0915 95.4709 46.4103C92.0456 51.7291 87.1636 55.9513 81.4064 58.5738V74.3838ZM91.9253 116.583C92.6624 115.846 93.0764 114.846 93.0764 113.804V81.4338C93.0764 80.3915 92.6624 79.3919 91.9253 78.6549C91.1883 77.9179 90.1887 77.5038 89.1464 77.5038H78.4064V56.7138L79.3064 56.3238C84.756 54.0436 89.4111 50.2051 92.688 45.2899C95.9648 40.3746 97.7175 34.6012 97.7264 28.6938C97.7304 28.1792 97.6324 27.6688 97.4382 27.1921C97.244 26.7155 96.9573 26.282 96.5948 25.9167C96.2322 25.5514 95.801 25.2614 95.3258 25.0635C94.8507 24.8657 94.3411 24.7638 93.8264 24.7638C93.2957 24.69 92.755 24.7397 92.2466 24.9091C91.7382 25.0785 91.2758 25.363 90.8955 25.7405C90.5151 26.1179 90.2271 26.5781 90.0538 27.0852C89.8805 27.5923 89.8266 28.1325 89.8964 28.6638C89.8964 34.5198 87.5701 40.1359 83.4293 44.2767C79.2885 48.4175 73.6724 50.7438 67.8164 50.7438C61.9604 50.7438 56.3443 48.4175 52.2035 44.2767C48.0627 40.1359 45.7364 34.5198 45.7364 28.6638C45.7364 27.6215 45.3224 26.6219 44.5853 25.8849C43.8483 25.1479 42.8487 24.7338 41.8064 24.7338C40.7641 24.7338 39.7645 25.1479 39.0275 25.8849C38.2905 26.6219 37.8764 27.6215 37.8764 28.6638C37.9113 34.341 39.5563 39.8918 42.6204 44.6712C45.6846 49.4506 50.042 53.2624 55.1864 55.6638L56.0564 56.0838V80.9538C56.0564 84.9438 60.2864 85.2438 61.5764 85.2438H67.4864V113.804C67.4864 114.846 67.9005 115.846 68.6375 116.583C69.3745 117.32 70.3741 117.734 71.4164 117.734C72.4587 117.734 73.4583 117.32 74.1953 116.583C74.9324 115.846 75.3464 114.846 75.3464 113.804V81.3138C75.3464 80.2715 74.9324 79.2719 74.1953 78.5349C73.4583 77.7979 72.4587 77.3838 71.4164 77.3838H64.0664V74.3838H71.4164C73.2544 74.3838 75.017 75.114 76.3167 76.4136C77.6163 77.7132 78.3464 79.4759 78.3464 81.3138V84.7638H85.2164V113.804C85.2164 114.846 85.6305 115.846 86.3675 116.583C87.1045 117.32 88.1041 117.734 89.1464 117.734C90.1887 117.734 91.1883 117.32 91.9253 116.583Z" fill="#49AC32"/>
</svg>
