<svg width="70" height="70" viewBox="0 0 70 70" fill="none" xmlns="http://www.w3.org/2000/svg">
<path fill-rule="evenodd" clip-rule="evenodd" d="M2.13633 47.116H30.7383V45.716H2.13633V40.032H25.9363V38.632H17.9563V37.414C17.9526 35.696 17.2685 34.0494 16.0537 32.8346C14.8389 31.6198 13.1923 30.9357 11.4743 30.932H3.88633C3.2619 30.9373 2.653 31.1273 2.13633 31.478V18.416H0.736328V61.242H2.13633V53.878H30.8083V52.478H2.13633V47.116ZM2.13633 34.082C2.13631 33.6203 2.31876 33.1773 2.64393 32.8495C2.9691 32.5217 3.41063 32.3357 3.87233 32.332H11.4743C12.821 32.3357 14.1115 32.8723 15.0638 33.8246C16.016 34.7768 16.5526 36.0673 16.5563 37.414V38.618H2.13633V34.082ZM35.8484 47.116L35.8511 45.716L39.0711 45.7222L39.0684 47.1222L35.8484 47.116ZM35.8402 53.9109L35.8427 52.5109L38.9927 52.5164L38.9902 53.9164L35.8402 53.9109ZM67.8659 38.6331V27.2371H69.2659V61.2431H67.8659V53.8791H44.1639V52.4791H67.8659V47.1311L44.0379 47.1171V45.7171L67.8659 45.7311V40.0331H44.1639V38.6331H67.8659Z" fill="white"/>
<path fill-rule="evenodd" clip-rule="evenodd" d="M35.0521 19.5477C34.0796 20.1887 32.9386 20.5265 31.7739 20.5182C30.2229 20.5034 28.7402 19.8779 27.6473 18.7771C26.5545 17.6764 25.9396 16.1893 25.9359 14.6382C25.936 13.4734 26.2819 12.3349 26.9299 11.3671C27.5779 10.3992 28.4987 9.64562 29.5756 9.20184C30.6524 8.75806 31.8369 8.64409 32.9786 8.8744C34.1203 9.1047 35.168 9.66891 35.9886 10.4954C36.8092 11.322 37.3659 12.3736 37.588 13.517C37.8101 14.6603 37.6877 15.8439 37.2362 16.9176C36.7847 17.9913 36.0245 18.9067 35.0521 19.5477ZM34.2742 10.8927C33.532 10.4055 32.6617 10.1498 31.7739 10.1582C30.5931 10.1692 29.4643 10.6461 28.6332 11.4851C27.8021 12.324 27.3359 13.4572 27.3359 14.6382C27.336 15.526 27.5998 16.3938 28.094 17.1314C28.5881 17.869 29.2903 18.4432 30.1114 18.781C30.9324 19.1188 31.8353 19.205 32.7055 19.0288C33.5757 18.8525 34.3738 18.4216 34.9987 17.7908C35.6235 17.1601 36.0468 16.3579 36.2149 15.4861C36.383 14.6143 36.2883 13.7123 35.9427 12.8944C35.5972 12.0766 35.0165 11.3798 34.2742 10.8927ZM37.99 34.7126H41.602C42.4549 34.7199 43.2703 35.0639 43.8708 35.6696C44.4712 36.2753 44.8081 37.0937 44.808 37.9466V53.0665C44.808 53.9243 44.4673 54.7468 43.8608 55.3533C43.2543 55.9598 42.4318 56.3005 41.574 56.3005C40.7163 56.3005 39.8938 55.9598 39.2873 55.3533C38.6808 54.7468 38.34 53.9243 38.34 53.0665V40.9566H36.534V53.1086C36.534 53.9663 36.1933 54.7888 35.5868 55.3953C34.9803 56.0018 34.1578 56.3426 33.3 56.3426C32.4423 56.3426 31.6198 56.0018 31.0133 55.3953C30.4068 54.7888 30.066 53.9663 30.066 53.1086V41.1806H28.666C26.314 41.1666 24.732 39.8085 24.732 37.7786V27.0686C22.1876 25.7897 20.0477 23.8303 18.5499 21.4083C17.0522 18.9862 16.2554 16.1963 16.248 13.3486C16.248 12.4908 16.5888 11.6683 17.1953 11.0618C17.8018 10.4553 18.6243 10.1146 19.482 10.1146C20.3398 10.1146 21.1623 10.4553 21.7688 11.0618C22.3753 11.6683 22.716 12.4908 22.716 13.3486C22.716 15.71 23.6541 17.9748 25.324 19.6446C26.9938 21.3145 29.2586 22.2526 31.62 22.2526C33.9815 22.2526 36.2463 21.3145 37.9161 19.6446C39.5859 17.9748 40.524 15.71 40.524 13.3486C40.4938 12.9155 40.5581 12.4811 40.7123 12.0754C40.8666 11.6697 41.1072 11.3023 41.4174 10.9987C41.7276 10.6951 42.1001 10.4626 42.5091 10.3172C42.9181 10.1718 43.3538 10.117 43.786 10.1566C44.6328 10.1565 45.4455 10.49 46.0482 11.0848C46.6509 11.6796 46.995 12.4879 47.006 13.3346C47.0033 16.2868 46.1519 19.1761 44.5535 21.6582C42.955 24.1404 40.6767 26.1107 37.99 27.3346V34.7126ZM42.8989 54.4054C43.2428 54.0614 43.436 53.595 43.436 53.1086V38.0026C43.436 37.5161 43.2428 37.0497 42.8989 36.7057C42.5549 36.3618 42.0885 36.1686 41.602 36.1686H36.59V26.4665L37.01 26.2845C39.5532 25.2204 41.7256 23.4292 43.2548 21.1354C44.784 18.8416 45.6019 16.1473 45.606 13.3906C45.6079 13.1504 45.5622 12.9122 45.4715 12.6898C45.3809 12.4673 45.2471 12.265 45.078 12.0946C44.9088 11.9241 44.7075 11.7888 44.4858 11.6964C44.264 11.6041 44.0262 11.5565 43.786 11.5566C43.5384 11.5221 43.2861 11.5453 43.0488 11.6243C42.8116 11.7034 42.5958 11.8362 42.4183 12.0123C42.2408 12.1885 42.1064 12.4032 42.0255 12.6399C41.9446 12.8765 41.9195 13.1286 41.952 13.3766C41.952 16.1093 40.8664 18.7302 38.9341 20.6626C37.0017 22.595 34.3808 23.6805 31.648 23.6805C28.9153 23.6805 26.2944 22.595 24.362 20.6626C22.4296 18.7302 21.344 16.1093 21.344 13.3766C21.344 12.8901 21.1508 12.4237 20.8069 12.0797C20.4629 11.7358 19.9965 11.5426 19.51 11.5426C19.0236 11.5426 18.5572 11.7358 18.2132 12.0797C17.8693 12.4237 17.676 12.8901 17.676 13.3766C17.6923 16.0259 18.46 18.6163 19.8899 20.8467C21.3199 23.077 23.3533 24.8559 25.754 25.9766L26.16 26.1726V37.7786C26.16 39.6406 28.134 39.7805 28.736 39.7805H31.494V53.1086C31.494 53.595 31.6873 54.0614 32.0312 54.4054C32.3752 54.7493 32.8416 54.9425 33.328 54.9425C33.8145 54.9425 34.2809 54.7493 34.6249 54.4054C34.9688 54.0614 35.162 53.595 35.162 53.1086V37.9466C35.162 37.4601 34.9688 36.9937 34.6249 36.6497C34.2809 36.3058 33.8145 36.1126 33.328 36.1126H29.898V34.7126H33.328C34.1858 34.7126 35.0083 35.0533 35.6148 35.6598C36.2213 36.2663 36.562 37.0888 36.562 37.9466V39.5566H39.768V53.1086C39.768 53.595 39.9613 54.0614 40.3052 54.4054C40.6492 54.7493 41.1156 54.9425 41.602 54.9425C42.0885 54.9425 42.5549 54.7493 42.8989 54.4054Z" fill="#49AC32"/>
</svg>
